<mxfile host="app.diagrams.net" modified="2024-04-06T10:17:44.013Z" agent="Mozilla/5.0 (Windows NT 10.0; Win64; x64) AppleWebKit/537.36 (KHTML, like Gecko) Chrome/123.0.0.0 Safari/537.36" etag="u82gMT7Pvv9W2v7DneXp" version="24.2.2" type="google">
  <diagram name="Page-1" id="E7Xz7osIQpANDQHGtXN4">
    <mxGraphModel grid="1" page="1" gridSize="10" guides="1" tooltips="1" connect="1" arrows="1" fold="1" pageScale="1" pageWidth="2339" pageHeight="3300" math="0" shadow="0">
      <root>
        <mxCell id="0" />
        <mxCell id="1" parent="0" />
        <mxCell id="UWmWM5rkKcDVRq-q_vms-13" value="&lt;span id=&quot;docs-internal-guid-bd92c07b-7fff-03b0-68b9-28c52c32ad15&quot; style=&quot;font-size: 15px;&quot;&gt;&lt;div dir=&quot;ltr&quot; style=&quot;margin-left: 0pt; font-size: 15px;&quot; align=&quot;left&quot;&gt;&lt;table style=&quot;border: none; border-collapse: collapse; font-size: 15px;&quot;&gt;&lt;colgroup style=&quot;font-size: 15px;&quot;&gt;&lt;col style=&quot;font-size: 15px;&quot; width=&quot;285&quot;&gt;&lt;col style=&quot;font-size: 15px;&quot; width=&quot;183&quot;&gt;&lt;col style=&quot;font-size: 15px;&quot; width=&quot;133&quot;&gt;&lt;/colgroup&gt;&lt;tbody style=&quot;font-size: 15px;&quot;&gt;&lt;tr style=&quot;height: 28.5pt; font-size: 15px;&quot;&gt;&lt;td style=&quot;border-width: 1pt; border-style: solid; border-color: rgb(0, 0, 0); vertical-align: middle; padding: 0pt 5.4pt; overflow: hidden; overflow-wrap: break-word; font-size: 15px;&quot;&gt;&lt;p dir=&quot;ltr&quot; style=&quot;line-height: 1.2; text-align: center; margin-top: 0pt; margin-bottom: 0pt; font-size: 15px;&quot;&gt;&lt;font face=&quot;Arial, sans-serif&quot;&gt;&lt;span style=&quot;white-space-collapse: preserve;&quot;&gt;Doc_ID&lt;/span&gt;&lt;/font&gt;&lt;/p&gt;&lt;/td&gt;&lt;/tr&gt;&lt;/tbody&gt;&lt;/table&gt;&lt;/div&gt;&lt;/span&gt;" style="text;whiteSpace=wrap;html=1;strokeWidth=2;fontSize=15;fontStyle=1" vertex="1" parent="1">
          <mxGeometry x="90" y="330" width="560" height="60" as="geometry" />
        </mxCell>
        <mxCell id="UWmWM5rkKcDVRq-q_vms-14" value="&lt;span id=&quot;docs-internal-guid-64c6e0b2-7fff-1688-cdf0-f742e15d2f91&quot; style=&quot;font-size: 15px;&quot;&gt;&lt;div dir=&quot;ltr&quot; style=&quot;margin-left: 0pt; font-size: 15px;&quot; align=&quot;left&quot;&gt;&lt;table style=&quot;border: none; border-collapse: collapse; font-size: 15px;&quot;&gt;&lt;colgroup style=&quot;font-size: 15px;&quot;&gt;&lt;col style=&quot;font-size: 15px;&quot; width=&quot;285&quot;&gt;&lt;col style=&quot;font-size: 15px;&quot; width=&quot;183&quot;&gt;&lt;col style=&quot;font-size: 15px;&quot; width=&quot;133&quot;&gt;&lt;/colgroup&gt;&lt;tbody style=&quot;font-size: 15px;&quot;&gt;&lt;tr style=&quot;height: 27.75pt; font-size: 15px;&quot;&gt;&lt;td style=&quot;border-width: 1pt; border-style: solid; border-color: rgb(0, 0, 0); vertical-align: middle; padding: 0pt 5.4pt; overflow: hidden; overflow-wrap: break-word; font-size: 15px;&quot;&gt;&lt;p dir=&quot;ltr&quot; style=&quot;line-height: 1.2; margin-top: 0pt; margin-bottom: 0pt; font-size: 15px;&quot;&gt;&lt;span style=&quot;font-size: 15px; font-family: Arial, sans-serif; color: rgb(0, 0, 0); background-color: transparent; font-style: normal; font-variant: normal; text-decoration: none; vertical-align: baseline; white-space: pre-wrap;&quot;&gt; &amp;nbsp; &amp;nbsp; &amp;nbsp; &amp;nbsp; &amp;nbsp; &amp;nbsp; &amp;nbsp; Doc_name&lt;/span&gt;&lt;/p&gt;&lt;/td&gt;&lt;/tr&gt;&lt;/tbody&gt;&lt;/table&gt;&lt;/div&gt;&lt;/span&gt;" style="text;whiteSpace=wrap;html=1;strokeWidth=2;fontSize=15;fontStyle=1" vertex="1" parent="1">
          <mxGeometry x="360" y="330" width="560" height="60" as="geometry" />
        </mxCell>
        <mxCell id="UWmWM5rkKcDVRq-q_vms-15" value="&lt;span id=&quot;docs-internal-guid-26c78f13-7fff-5b6a-0ccb-1782fcace237&quot; style=&quot;font-size: 15px;&quot;&gt;&lt;div dir=&quot;ltr&quot; style=&quot;margin-left: 0pt; font-size: 15px;&quot; align=&quot;left&quot;&gt;&lt;table style=&quot;border: none; border-collapse: collapse; font-size: 15px;&quot;&gt;&lt;colgroup style=&quot;font-size: 15px;&quot;&gt;&lt;col style=&quot;font-size: 15px;&quot; width=&quot;285&quot;&gt;&lt;col style=&quot;font-size: 15px;&quot; width=&quot;183&quot;&gt;&lt;col style=&quot;font-size: 15px;&quot; width=&quot;133&quot;&gt;&lt;/colgroup&gt;&lt;tbody style=&quot;font-size: 15px;&quot;&gt;&lt;tr style=&quot;height: 27.75pt; font-size: 15px;&quot;&gt;&lt;td style=&quot;border-width: 1pt; border-style: solid; border-color: rgb(0, 0, 0); vertical-align: middle; padding: 0pt 5.4pt; overflow: hidden; overflow-wrap: break-word; font-size: 15px;&quot;&gt;&lt;p dir=&quot;ltr&quot; style=&quot;line-height: 1.2; text-align: center; margin-top: 0pt; margin-bottom: 0pt; font-size: 15px;&quot;&gt;&lt;span style=&quot;font-size: 15px; font-family: Arial, sans-serif; color: rgb(0, 0, 0); background-color: transparent; font-style: normal; font-variant: normal; text-decoration: none; vertical-align: baseline; white-space: pre-wrap;&quot;&gt;&amp;nbsp; Doc_Exp&lt;/span&gt;&lt;/p&gt;&lt;/td&gt;&lt;/tr&gt;&lt;/tbody&gt;&lt;/table&gt;&lt;/div&gt;&lt;/span&gt;" style="text;whiteSpace=wrap;html=1;strokeWidth=2;fontSize=15;fontStyle=1" vertex="1" parent="1">
          <mxGeometry x="630" y="330" width="560" height="60" as="geometry" />
        </mxCell>
        <mxCell id="UWmWM5rkKcDVRq-q_vms-16" value="&lt;span id=&quot;docs-internal-guid-f00a0fa9-7fff-80f0-06fc-46bae72c3ba9&quot; style=&quot;font-size: 15px;&quot;&gt;&lt;div dir=&quot;ltr&quot; style=&quot;margin-left: 0pt; font-size: 15px;&quot; align=&quot;left&quot;&gt;&lt;table style=&quot;border: none; border-collapse: collapse; font-size: 15px;&quot;&gt;&lt;colgroup style=&quot;font-size: 15px;&quot;&gt;&lt;col style=&quot;font-size: 15px;&quot; width=&quot;285&quot;&gt;&lt;col style=&quot;font-size: 15px;&quot; width=&quot;183&quot;&gt;&lt;col style=&quot;font-size: 15px;&quot; width=&quot;133&quot;&gt;&lt;/colgroup&gt;&lt;tbody style=&quot;font-size: 15px;&quot;&gt;&lt;tr style=&quot;height: 28.5pt; font-size: 15px;&quot;&gt;&lt;td style=&quot;border-width: 1pt; border-style: solid; border-color: rgb(0, 0, 0); vertical-align: middle; padding: 0pt 5.4pt; overflow: hidden; overflow-wrap: break-word; font-size: 15px;&quot;&gt;&lt;p dir=&quot;ltr&quot; style=&quot;line-height: 1.2; text-align: center; margin-top: 0pt; margin-bottom: 0pt; font-size: 15px;&quot;&gt;&lt;font face=&quot;Arial, sans-serif&quot;&gt;&lt;span style=&quot;white-space-collapse: preserve;&quot;&gt;Doc_contact&lt;/span&gt;&lt;/font&gt;&lt;/p&gt;&lt;/td&gt;&lt;/tr&gt;&lt;/tbody&gt;&lt;/table&gt;&lt;/div&gt;&lt;/span&gt;" style="text;whiteSpace=wrap;html=1;strokeWidth=2;fontSize=15;fontStyle=1" vertex="1" parent="1">
          <mxGeometry x="900" y="330" width="560" height="60" as="geometry" />
        </mxCell>
        <mxCell id="UWmWM5rkKcDVRq-q_vms-23" value="&lt;span id=&quot;docs-internal-guid-bd92c07b-7fff-03b0-68b9-28c52c32ad15&quot; style=&quot;font-size: 15px;&quot;&gt;&lt;div dir=&quot;ltr&quot; style=&quot;margin-left: 0pt; font-size: 15px;&quot; align=&quot;left&quot;&gt;&lt;table style=&quot;border: none; border-collapse: collapse; font-size: 15px;&quot;&gt;&lt;colgroup style=&quot;font-size: 15px;&quot;&gt;&lt;col style=&quot;font-size: 15px;&quot; width=&quot;285&quot;&gt;&lt;col style=&quot;font-size: 15px;&quot; width=&quot;183&quot;&gt;&lt;col style=&quot;font-size: 15px;&quot; width=&quot;133&quot;&gt;&lt;/colgroup&gt;&lt;tbody style=&quot;font-size: 15px;&quot;&gt;&lt;tr style=&quot;height: 28.5pt; font-size: 15px;&quot;&gt;&lt;td style=&quot;border-width: 1pt; border-style: solid; border-color: rgb(0, 0, 0); vertical-align: middle; padding: 0pt 5.4pt; overflow: hidden; overflow-wrap: break-word; font-size: 15px;&quot;&gt;&lt;p dir=&quot;ltr&quot; style=&quot;line-height: 1.2; text-align: center; margin-top: 0pt; margin-bottom: 0pt; font-size: 15px;&quot;&gt;&lt;span style=&quot;font-size: 15px; font-family: Arial, sans-serif; color: rgb(0, 0, 0); background-color: transparent; font-style: normal; font-variant: normal; text-decoration: none; vertical-align: baseline; white-space: pre-wrap;&quot;&gt;DOCTOR&lt;/span&gt;&lt;/p&gt;&lt;/td&gt;&lt;/tr&gt;&lt;/tbody&gt;&lt;/table&gt;&lt;/div&gt;&lt;/span&gt;" style="text;whiteSpace=wrap;html=1;strokeWidth=2;fontSize=15;fontStyle=1" vertex="1" parent="1">
          <mxGeometry x="90" y="290" width="560" height="60" as="geometry" />
        </mxCell>
        <mxCell id="wvzBsR5PxNeLDD9Q0MEE-6" value="&lt;span id=&quot;docs-internal-guid-fa5433e7-7fff-da31-fba5-7217dd7b85c2&quot; style=&quot;font-size: 15px;&quot;&gt;&lt;div dir=&quot;ltr&quot; style=&quot;margin-left: 0pt; font-size: 15px;&quot; align=&quot;left&quot;&gt;&lt;table style=&quot;border: none; border-collapse: collapse; font-size: 15px;&quot;&gt;&lt;colgroup style=&quot;font-size: 15px;&quot;&gt;&lt;col style=&quot;font-size: 15px;&quot; width=&quot;285&quot;&gt;&lt;col style=&quot;font-size: 15px;&quot; width=&quot;183&quot;&gt;&lt;col style=&quot;font-size: 15px;&quot; width=&quot;133&quot;&gt;&lt;/colgroup&gt;&lt;tbody style=&quot;font-size: 15px;&quot;&gt;&lt;tr style=&quot;height: 28.5pt; font-size: 15px;&quot;&gt;&lt;td style=&quot;border-width: 1pt; border-style: solid; border-color: rgb(0, 0, 0); vertical-align: middle; padding: 0pt 5.4pt; overflow: hidden; overflow-wrap: break-word; font-size: 15px;&quot;&gt;&lt;p dir=&quot;ltr&quot; style=&quot;line-height: 1.2; text-align: center; margin-top: 0pt; margin-bottom: 0pt; font-size: 15px;&quot;&gt;&lt;font face=&quot;Arial, sans-serif&quot;&gt;Diag_id&lt;/font&gt;&lt;/p&gt;&lt;/td&gt;&lt;/tr&gt;&lt;/tbody&gt;&lt;/table&gt;&lt;/div&gt;&lt;/span&gt;" style="text;whiteSpace=wrap;html=1;strokeWidth=2;fontSize=15;fontStyle=1" vertex="1" parent="1">
          <mxGeometry x="93" y="1550" width="560" height="60" as="geometry" />
        </mxCell>
        <mxCell id="wvzBsR5PxNeLDD9Q0MEE-7" value="&lt;span id=&quot;docs-internal-guid-aba1fbd8-7fff-fe93-bda7-45834ba78ddd&quot; style=&quot;font-size: 15px;&quot;&gt;&lt;div dir=&quot;ltr&quot; style=&quot;margin-left: 0pt; font-size: 15px;&quot; align=&quot;left&quot;&gt;&lt;table style=&quot;border: none; border-collapse: collapse; font-size: 15px;&quot;&gt;&lt;colgroup style=&quot;font-size: 15px;&quot;&gt;&lt;col style=&quot;font-size: 15px;&quot; width=&quot;285&quot;&gt;&lt;col style=&quot;font-size: 15px;&quot; width=&quot;183&quot;&gt;&lt;col style=&quot;font-size: 15px;&quot; width=&quot;133&quot;&gt;&lt;/colgroup&gt;&lt;tbody style=&quot;font-size: 15px;&quot;&gt;&lt;tr style=&quot;height: 28.5pt; font-size: 15px;&quot;&gt;&lt;td style=&quot;border-width: 1pt; border-style: solid; border-color: rgb(0, 0, 0); vertical-align: middle; padding: 0pt 5.4pt; overflow: hidden; overflow-wrap: break-word; font-size: 15px;&quot;&gt;&lt;p style=&quot;line-height: 1.2; text-align: center; margin-top: 0pt; margin-bottom: 0pt; font-size: 15px;&quot; dir=&quot;ltr&quot;&gt;&lt;font face=&quot;Arial, sans-serif&quot;&gt;&lt;span style=&quot;white-space-collapse: preserve;&quot;&gt;Diag Date&lt;/span&gt;&lt;/font&gt;&lt;/p&gt;&lt;/td&gt;&lt;/tr&gt;&lt;/tbody&gt;&lt;/table&gt;&lt;/div&gt;&lt;/span&gt;" style="text;whiteSpace=wrap;html=1;strokeWidth=2;fontSize=15;fontStyle=1" vertex="1" parent="1">
          <mxGeometry x="362" y="1550" width="560" height="60" as="geometry" />
        </mxCell>
        <mxCell id="UWmWM5rkKcDVRq-q_vms-29" value="&lt;span id=&quot;docs-internal-guid-41cc363e-7fff-2066-ed47-d3e46d8b0dd9&quot; style=&quot;font-size: 15px;&quot;&gt;&lt;div dir=&quot;ltr&quot; style=&quot;margin-left: 0pt; font-size: 15px;&quot; align=&quot;left&quot;&gt;&lt;table style=&quot;border: none; border-collapse: collapse; font-size: 15px;&quot;&gt;&lt;colgroup style=&quot;font-size: 15px;&quot;&gt;&lt;col style=&quot;font-size: 15px;&quot; width=&quot;285&quot;&gt;&lt;col style=&quot;font-size: 15px;&quot; width=&quot;183&quot;&gt;&lt;col style=&quot;font-size: 15px;&quot; width=&quot;133&quot;&gt;&lt;/colgroup&gt;&lt;tbody style=&quot;font-size: 15px;&quot;&gt;&lt;tr style=&quot;height: 28.5pt; font-size: 15px;&quot;&gt;&lt;td style=&quot;border-width: 1pt; border-style: solid; border-color: rgb(0, 0, 0); vertical-align: middle; padding: 0pt 5.4pt; overflow: hidden; overflow-wrap: break-word; font-size: 15px;&quot;&gt;&lt;p dir=&quot;ltr&quot; style=&quot;line-height: 1.2; margin-top: 0pt; margin-bottom: 0pt; font-size: 15px;&quot;&gt;&lt;span style=&quot;font-size: 15px; font-family: Arial, sans-serif; color: rgb(0, 0, 0); background-color: transparent; font-style: normal; font-variant: normal; text-decoration: none; vertical-align: baseline; white-space: pre-wrap;&quot;&gt;Patientid&lt;/span&gt;&lt;/p&gt;&lt;/td&gt;&lt;/tr&gt;&lt;/tbody&gt;&lt;/table&gt;&lt;/div&gt;&lt;/span&gt;" style="text;whiteSpace=wrap;html=1;strokeWidth=2;fontSize=15;fontStyle=1" vertex="1" parent="1">
          <mxGeometry x="90" y="750" width="560" height="60" as="geometry" />
        </mxCell>
        <mxCell id="UWmWM5rkKcDVRq-q_vms-30" value="&lt;span id=&quot;docs-internal-guid-30d9f104-7fff-460d-0957-c707f62ae760&quot; style=&quot;font-size: 15px;&quot;&gt;&lt;div dir=&quot;ltr&quot; style=&quot;margin-left: 0pt; font-size: 15px;&quot; align=&quot;left&quot;&gt;&lt;table style=&quot;border: none; border-collapse: collapse; font-size: 15px;&quot;&gt;&lt;colgroup style=&quot;font-size: 15px;&quot;&gt;&lt;col style=&quot;font-size: 15px;&quot; width=&quot;285&quot;&gt;&lt;col style=&quot;font-size: 15px;&quot; width=&quot;183&quot;&gt;&lt;col style=&quot;font-size: 15px;&quot; width=&quot;133&quot;&gt;&lt;/colgroup&gt;&lt;tbody style=&quot;font-size: 15px;&quot;&gt;&lt;tr style=&quot;height: 28.5pt; font-size: 15px;&quot;&gt;&lt;td style=&quot;border-width: 1pt; border-style: solid; border-color: rgb(0, 0, 0); vertical-align: middle; padding: 0pt 5.4pt; overflow: hidden; overflow-wrap: break-word; font-size: 15px;&quot;&gt;&lt;p dir=&quot;ltr&quot; style=&quot;line-height: 1.2; text-align: center; margin-top: 0pt; margin-bottom: 0pt; font-size: 15px;&quot;&gt;&lt;span style=&quot;font-size: 15px; font-family: Arial, sans-serif; color: rgb(0, 0, 0); background-color: transparent; font-style: normal; font-variant: normal; text-decoration: none; vertical-align: baseline; white-space: pre-wrap;&quot;&gt;Patient_name&lt;/span&gt;&lt;/p&gt;&lt;/td&gt;&lt;/tr&gt;&lt;/tbody&gt;&lt;/table&gt;&lt;/div&gt;&lt;/span&gt;" style="text;whiteSpace=wrap;html=1;strokeWidth=2;fontSize=15;fontStyle=1" vertex="1" parent="1">
          <mxGeometry x="360" y="750" width="560" height="60" as="geometry" />
        </mxCell>
        <mxCell id="wvzBsR5PxNeLDD9Q0MEE-10" value="&lt;span id=&quot;docs-internal-guid-8af0c561-7fff-5de8-570a-4e60a3c300a6&quot; style=&quot;font-size: 15px;&quot;&gt;&lt;div dir=&quot;ltr&quot; style=&quot;margin-left: 0pt; font-size: 15px;&quot; align=&quot;left&quot;&gt;&lt;table style=&quot;border: none; border-collapse: collapse; font-size: 15px;&quot;&gt;&lt;colgroup style=&quot;font-size: 15px;&quot;&gt;&lt;col style=&quot;font-size: 15px;&quot; width=&quot;285&quot;&gt;&lt;col style=&quot;font-size: 15px;&quot; width=&quot;183&quot;&gt;&lt;col style=&quot;font-size: 15px;&quot; width=&quot;133&quot;&gt;&lt;/colgroup&gt;&lt;tbody style=&quot;font-size: 15px;&quot;&gt;&lt;tr style=&quot;height: 28.5pt; font-size: 15px;&quot;&gt;&lt;td style=&quot;border-width: 1pt; border-style: solid; border-color: rgb(0, 0, 0); vertical-align: middle; padding: 0pt 5.4pt; overflow: hidden; overflow-wrap: break-word; font-size: 15px;&quot;&gt;&lt;p style=&quot;line-height: 1.2; text-align: center; margin-top: 0pt; margin-bottom: 0pt; font-size: 15px;&quot; dir=&quot;ltr&quot;&gt;&lt;font face=&quot;Arial, sans-serif&quot;&gt;Pat_id&lt;/font&gt;&lt;/p&gt;&lt;/td&gt;&lt;/tr&gt;&lt;/tbody&gt;&lt;/table&gt;&lt;span style=&quot;color: rgba(0, 0, 0, 0); font-family: monospace; font-size: 15px; text-wrap: nowrap;&quot;&gt;%3CmxGraphModel%3E%3Croot%3E%3CmxCell%20id%3D%220%22%2F%3E%3CmxCell%20id%3D%221%22%20parent%3D%220%22%2F%3E%3CmxCell%20id%3D%222%22%20value%3D%22%22%20style%3D%22endArrow%3Dnone%3Bdashed%3D1%3Bhtml%3D1%3Brounded%3D0%3B%22%20edge%3D%221%22%20parent%3D%221%22%3E%3CmxGeometry%20width%3D%2250%22%20height%3D%2250%22%20relative%3D%221%22%20as%3D%22geometry%22%3E%3CmxPoint%20x%3D%22787%22%20y%3D%22462%22%20as%3D%22sourcePoint%22%2F%3E%3CmxPoint%20x%3D%22877%22%20y%3D%22462%22%20as%3D%22targetPoint%22%2F%3E%3C%2FmxGeometry%3E%3C%2FmxCell%3E%3C%2Froot%3E%3C%2FmxGraphModel%3E&lt;/span&gt;&lt;span style=&quot;color: rgba(0, 0, 0, 0); font-family: monospace; font-size: 15px; text-wrap: nowrap; background-color: initial;&quot;&gt;%3CmxGraphModel%3E%3Croot%3E%3CmxCell%20id%3D%220%22%2F%3E%3CmxCell%20id%3D%221%22%20parent%3D%220%22%2F%3E%3CmxCell%20id%3D%222%22%20value%3D%22%22%20style%3D%22endArrow%3Dnone%3Bdashed%3D1%3Bhtml%3D1%3Brounded%3D0%3B%22%20edge%3D%221%22%20parent%3D%221%22%3E%3CmxGeometry%20width%3D%2250%22%20height%3D%2250%22%20relative%3D%221%22%20as%3D%22geometry%22%3E%3CmxPoint%20x%3D%22787%22%20y%3D%22462%22%20as%3D%22sourcePoint%22%2F%3E%3CmxPoint%20x%3D%22877%22%20y%3D%22462%22%20as%3D%22targetPoint%22%2F%3E%3C%2FmxGeometry%3E%3C%2FmxCell%3E%3C%2Froot%3E%3C%2FmxGraphModel%3E&lt;/span&gt;&lt;/div&gt;&lt;/span&gt;" style="text;whiteSpace=wrap;html=1;strokeWidth=2;fontSize=15;fontStyle=1" vertex="1" parent="1">
          <mxGeometry x="630" y="1550" width="560" height="60" as="geometry" />
        </mxCell>
        <mxCell id="UWmWM5rkKcDVRq-q_vms-28" value="&lt;span id=&quot;docs-internal-guid-96762938-7fff-d55d-0912-fb01452e396e&quot; style=&quot;font-size: 15px;&quot;&gt;&lt;div dir=&quot;ltr&quot; style=&quot;margin-left: 0pt; font-size: 15px;&quot; align=&quot;left&quot;&gt;&lt;table style=&quot;border: none; border-collapse: collapse; font-size: 15px;&quot;&gt;&lt;colgroup style=&quot;font-size: 15px;&quot;&gt;&lt;col style=&quot;font-size: 15px;&quot; width=&quot;285&quot;&gt;&lt;col style=&quot;font-size: 15px;&quot; width=&quot;183&quot;&gt;&lt;col style=&quot;font-size: 15px;&quot; width=&quot;133&quot;&gt;&lt;/colgroup&gt;&lt;tbody style=&quot;font-size: 15px;&quot;&gt;&lt;tr style=&quot;height: 28.5pt; font-size: 15px;&quot;&gt;&lt;td style=&quot;border-width: 1pt; border-style: solid; border-color: rgb(0, 0, 0); vertical-align: middle; padding: 0pt 5.4pt; overflow: hidden; overflow-wrap: break-word; font-size: 15px;&quot;&gt;&lt;p dir=&quot;ltr&quot; style=&quot;line-height: 1.2; margin-top: 0pt; margin-bottom: 0pt; font-size: 15px;&quot;&gt;&lt;span style=&quot;font-size: 15px; font-family: Arial, sans-serif; color: rgb(0, 0, 0); background-color: transparent; font-style: normal; font-variant: normal; text-decoration: none; vertical-align: baseline; white-space: pre-wrap;&quot;&gt;PATIENT&lt;/span&gt;&lt;/p&gt;&lt;/td&gt;&lt;/tr&gt;&lt;/tbody&gt;&lt;/table&gt;&lt;/div&gt;&lt;/span&gt;" style="text;whiteSpace=wrap;html=1;strokeWidth=2;fontSize=15;fontStyle=1" vertex="1" parent="1">
          <mxGeometry x="90" y="710" width="560" height="60" as="geometry" />
        </mxCell>
        <mxCell id="UWmWM5rkKcDVRq-q_vms-32" value="&lt;span id=&quot;docs-internal-guid-397e2550-7fff-9d1e-005d-97664fb36888&quot; style=&quot;font-size: 15px;&quot;&gt;&lt;div dir=&quot;ltr&quot; style=&quot;margin-left: 0pt; font-size: 15px;&quot; align=&quot;left&quot;&gt;&lt;table style=&quot;border: none; border-collapse: collapse; font-size: 15px;&quot;&gt;&lt;colgroup style=&quot;font-size: 15px;&quot;&gt;&lt;col style=&quot;font-size: 15px;&quot; width=&quot;285&quot;&gt;&lt;col style=&quot;font-size: 15px;&quot; width=&quot;183&quot;&gt;&lt;col style=&quot;font-size: 15px;&quot; width=&quot;133&quot;&gt;&lt;/colgroup&gt;&lt;tbody style=&quot;font-size: 15px;&quot;&gt;&lt;tr style=&quot;height: 28.5pt; font-size: 15px;&quot;&gt;&lt;td style=&quot;border-width: 1pt; border-style: solid; border-color: rgb(0, 0, 0); vertical-align: middle; padding: 0pt 5.4pt; overflow: hidden; overflow-wrap: break-word; font-size: 15px;&quot;&gt;&lt;p dir=&quot;ltr&quot; style=&quot;line-height: 1.2; text-align: center; margin-top: 0pt; margin-bottom: 0pt; font-size: 15px;&quot;&gt;&lt;span style=&quot;font-size: 15px; font-family: Arial, sans-serif; color: rgb(0, 0, 0); background-color: transparent; font-style: normal; font-variant: normal; text-decoration: none; vertical-align: baseline; white-space: pre-wrap;&quot;&gt;Medical_History&lt;/span&gt;&lt;/p&gt;&lt;/td&gt;&lt;/tr&gt;&lt;/tbody&gt;&lt;/table&gt;&lt;/div&gt;&lt;/span&gt;" style="text;whiteSpace=wrap;html=1;strokeWidth=2;fontSize=15;fontStyle=1" vertex="1" parent="1">
          <mxGeometry x="900" y="750" width="560" height="60" as="geometry" />
        </mxCell>
        <mxCell id="UWmWM5rkKcDVRq-q_vms-34" value="&lt;span id=&quot;docs-internal-guid-d3f52924-7fff-9f71-109f-d62ac2c7db36&quot; style=&quot;font-size: 15px;&quot;&gt;&lt;div dir=&quot;ltr&quot; style=&quot;margin-left: 0pt; font-size: 15px;&quot; align=&quot;left&quot;&gt;&lt;table style=&quot;border: none; border-collapse: collapse; font-size: 15px;&quot;&gt;&lt;colgroup style=&quot;font-size: 15px;&quot;&gt;&lt;col style=&quot;font-size: 15px;&quot; width=&quot;285&quot;&gt;&lt;col style=&quot;font-size: 15px;&quot; width=&quot;183&quot;&gt;&lt;col style=&quot;font-size: 15px;&quot; width=&quot;133&quot;&gt;&lt;/colgroup&gt;&lt;tbody style=&quot;font-size: 15px;&quot;&gt;&lt;tr style=&quot;height: 28.5pt; font-size: 15px;&quot;&gt;&lt;td style=&quot;border-width: 1pt; border-style: solid; border-color: rgb(0, 0, 0); vertical-align: middle; padding: 0pt 5.4pt; overflow: hidden; overflow-wrap: break-word; font-size: 15px;&quot;&gt;&lt;p dir=&quot;ltr&quot; style=&quot;line-height: 1.2; margin-top: 0pt; margin-bottom: 0pt; font-size: 15px;&quot;&gt;&lt;span style=&quot;font-size: 15px; font-family: Arial, sans-serif; color: rgb(0, 0, 0); background-color: transparent; font-style: normal; font-variant: normal; text-decoration: none; vertical-align: baseline; white-space: pre-wrap;&quot;&gt;APPOINTMENT&lt;/span&gt;&lt;/p&gt;&lt;/td&gt;&lt;/tr&gt;&lt;/tbody&gt;&lt;/table&gt;&lt;/div&gt;&lt;/span&gt;" style="text;whiteSpace=wrap;html=1;strokeWidth=2;fontSize=15;fontStyle=1" vertex="1" parent="1">
          <mxGeometry x="90" y="901" width="560" height="60" as="geometry" />
        </mxCell>
        <mxCell id="wvzBsR5PxNeLDD9Q0MEE-15" value="&lt;span id=&quot;docs-internal-guid-fa5433e7-7fff-da31-fba5-7217dd7b85c2&quot; style=&quot;font-size: 15px;&quot;&gt;&lt;div dir=&quot;ltr&quot; style=&quot;margin-left: 0pt; font-size: 15px;&quot; align=&quot;left&quot;&gt;&lt;table style=&quot;border: none; border-collapse: collapse; font-size: 15px;&quot;&gt;&lt;colgroup style=&quot;font-size: 15px;&quot;&gt;&lt;col style=&quot;font-size: 15px;&quot; width=&quot;285&quot;&gt;&lt;col style=&quot;font-size: 15px;&quot; width=&quot;183&quot;&gt;&lt;col style=&quot;font-size: 15px;&quot; width=&quot;133&quot;&gt;&lt;/colgroup&gt;&lt;tbody style=&quot;font-size: 15px;&quot;&gt;&lt;tr style=&quot;height: 28.5pt; font-size: 15px;&quot;&gt;&lt;td style=&quot;border-width: 1pt; border-style: solid; border-color: rgb(0, 0, 0); vertical-align: middle; padding: 0pt 5.4pt; overflow: hidden; overflow-wrap: break-word; font-size: 15px;&quot;&gt;&lt;p dir=&quot;ltr&quot; style=&quot;line-height: 1.2; text-align: center; margin-top: 0pt; margin-bottom: 0pt; font-size: 15px;&quot;&gt;&lt;font style=&quot;font-size: 15px;&quot; face=&quot;Arial, sans-serif&quot;&gt;&lt;span style=&quot;font-size: 15px;&quot;&gt;&lt;span style=&quot;font-size: 15px;&quot;&gt;NURSE&lt;/span&gt;&lt;/span&gt;&lt;/font&gt;&lt;/p&gt;&lt;/td&gt;&lt;/tr&gt;&lt;/tbody&gt;&lt;/table&gt;&lt;/div&gt;&lt;/span&gt;" style="text;whiteSpace=wrap;html=1;strokeWidth=2;fontSize=15;fontStyle=1" vertex="1" parent="1">
          <mxGeometry x="81" y="1060" width="560" height="60" as="geometry" />
        </mxCell>
        <mxCell id="wvzBsR5PxNeLDD9Q0MEE-18" value="&lt;span id=&quot;docs-internal-guid-8aaec818-7fff-aa9d-ecde-182d6389d72b&quot; style=&quot;font-size: 15px;&quot;&gt;&lt;div dir=&quot;ltr&quot; style=&quot;margin-left: 0pt; font-size: 15px;&quot; align=&quot;left&quot;&gt;&lt;table style=&quot;border: none; border-collapse: collapse; font-size: 15px;&quot;&gt;&lt;colgroup style=&quot;font-size: 15px;&quot;&gt;&lt;col style=&quot;font-size: 15px;&quot; width=&quot;285&quot;&gt;&lt;col style=&quot;font-size: 15px;&quot; width=&quot;183&quot;&gt;&lt;col style=&quot;font-size: 15px;&quot; width=&quot;133&quot;&gt;&lt;/colgroup&gt;&lt;tbody style=&quot;font-size: 15px;&quot;&gt;&lt;tr style=&quot;height: 28.5pt; font-size: 15px;&quot;&gt;&lt;td style=&quot;border-width: 1pt; border-style: solid; border-color: rgb(0, 0, 0); vertical-align: middle; padding: 0pt 5.4pt; overflow: hidden; overflow-wrap: break-word; font-size: 15px;&quot;&gt;&lt;p dir=&quot;ltr&quot; style=&quot;line-height: 1.2; text-align: center; margin-top: 0pt; margin-bottom: 0pt; font-size: 15px;&quot;&gt;&lt;span style=&quot;font-size: 15px; font-family: Arial, sans-serif; color: rgb(0, 0, 0); background-color: transparent; font-style: normal; font-variant: normal; text-decoration: none; vertical-align: baseline;&quot;&gt;Nurse_id&lt;/span&gt;&lt;/p&gt;&lt;/td&gt;&lt;/tr&gt;&lt;/tbody&gt;&lt;/table&gt;&lt;/div&gt;&lt;/span&gt;" style="text;whiteSpace=wrap;html=1;strokeWidth=2;fontSize=15;fontStyle=1" vertex="1" parent="1">
          <mxGeometry x="81" y="1099" width="560" height="60" as="geometry" />
        </mxCell>
        <mxCell id="wvzBsR5PxNeLDD9Q0MEE-19" value="&lt;span id=&quot;docs-internal-guid-77a732a3-7fff-db80-5902-9b55e5fa6400&quot; style=&quot;font-size: 15px;&quot;&gt;&lt;div dir=&quot;ltr&quot; style=&quot;margin-left: 0pt; font-size: 15px;&quot; align=&quot;left&quot;&gt;&lt;table style=&quot;border: none; border-collapse: collapse; font-size: 15px;&quot;&gt;&lt;colgroup style=&quot;font-size: 15px;&quot;&gt;&lt;col style=&quot;font-size: 15px;&quot; width=&quot;285&quot;&gt;&lt;col style=&quot;font-size: 15px;&quot; width=&quot;183&quot;&gt;&lt;col style=&quot;font-size: 15px;&quot; width=&quot;133&quot;&gt;&lt;/colgroup&gt;&lt;tbody style=&quot;font-size: 15px;&quot;&gt;&lt;tr style=&quot;height: 28.5pt; font-size: 15px;&quot;&gt;&lt;td style=&quot;border-width: 1pt; border-style: solid; border-color: rgb(0, 0, 0); vertical-align: middle; padding: 0pt 5.4pt; overflow: hidden; overflow-wrap: break-word; font-size: 15px;&quot;&gt;&lt;p dir=&quot;ltr&quot; style=&quot;line-height: 1.2; text-align: center; margin-top: 0pt; margin-bottom: 0pt; font-size: 15px;&quot;&gt;&lt;span style=&quot;font-size: 15px; font-family: Arial, sans-serif; color: rgb(0, 0, 0); background-color: transparent; font-style: normal; font-variant: normal; text-decoration: none; vertical-align: baseline;&quot;&gt;Nurse name&lt;/span&gt;&lt;/p&gt;&lt;/td&gt;&lt;/tr&gt;&lt;/tbody&gt;&lt;/table&gt;&lt;/div&gt;&lt;/span&gt;" style="text;whiteSpace=wrap;html=1;strokeWidth=2;fontSize=15;fontStyle=1" vertex="1" parent="1">
          <mxGeometry x="350" y="1098" width="560" height="60" as="geometry" />
        </mxCell>
        <mxCell id="UWmWM5rkKcDVRq-q_vms-42" value="&lt;span id=&quot;docs-internal-guid-bbc0c4c2-7fff-ccf4-acf8-2b0daaafc136&quot; style=&quot;font-size: 15px;&quot;&gt;&lt;div dir=&quot;ltr&quot; style=&quot;margin-left: 0pt; font-size: 15px;&quot; align=&quot;left&quot;&gt;&lt;table style=&quot;border: none; border-collapse: collapse; font-size: 15px;&quot;&gt;&lt;colgroup style=&quot;font-size: 15px;&quot;&gt;&lt;col style=&quot;font-size: 15px;&quot; width=&quot;285&quot;&gt;&lt;col style=&quot;font-size: 15px;&quot; width=&quot;183&quot;&gt;&lt;col style=&quot;font-size: 15px;&quot; width=&quot;133&quot;&gt;&lt;/colgroup&gt;&lt;tbody style=&quot;font-size: 15px;&quot;&gt;&lt;tr style=&quot;height: 28.5pt; font-size: 15px;&quot;&gt;&lt;td style=&quot;border-width: 1pt; border-style: solid; border-color: rgb(0, 0, 0); vertical-align: middle; padding: 0pt 5.4pt; overflow: hidden; overflow-wrap: break-word; font-size: 15px;&quot;&gt;&lt;p dir=&quot;ltr&quot; style=&quot;line-height: 1.2; text-align: center; margin-top: 0pt; margin-bottom: 0pt; font-size: 15px;&quot;&gt;&lt;span style=&quot;font-size: 15px; font-family: Arial, sans-serif; color: rgb(0, 0, 0); background-color: transparent; font-style: normal; font-variant: normal; text-decoration: none; vertical-align: baseline; white-space: pre-wrap;&quot;&gt;Pres_date&lt;/span&gt;&lt;/p&gt;&lt;/td&gt;&lt;/tr&gt;&lt;/tbody&gt;&lt;/table&gt;&lt;/div&gt;&lt;/span&gt;" style="text;whiteSpace=wrap;html=1;strokeWidth=2;fontSize=15;fontStyle=1" vertex="1" parent="1">
          <mxGeometry x="360" y="1260" width="560" height="60" as="geometry" />
        </mxCell>
        <mxCell id="wvzBsR5PxNeLDD9Q0MEE-29" value="" style="endArrow=none;dashed=1;html=1;rounded=0;strokeWidth=2;fontSize=15;fontStyle=1" edge="1" parent="1">
          <mxGeometry width="50" height="50" relative="1" as="geometry">
            <mxPoint x="730" y="1588" as="sourcePoint" />
            <mxPoint x="820" y="1588" as="targetPoint" />
          </mxGeometry>
        </mxCell>
        <mxCell id="wvzBsR5PxNeLDD9Q0MEE-28" value="" style="endArrow=none;html=1;rounded=0;strokeWidth=2;fontSize=15;fontStyle=1" edge="1" parent="1">
          <mxGeometry width="50" height="50" relative="1" as="geometry">
            <mxPoint x="188" y="367" as="sourcePoint" />
            <mxPoint x="268" y="367" as="targetPoint" />
            <Array as="points" />
          </mxGeometry>
        </mxCell>
        <mxCell id="x4lsSWDTlxaTOrD71Kir-37" value="" style="endArrow=none;html=1;rounded=0;strokeWidth=2;fontSize=15;fontStyle=1" edge="1" parent="1">
          <mxGeometry width="50" height="50" relative="1" as="geometry">
            <mxPoint x="100" y="980" as="sourcePoint" />
            <mxPoint x="160" y="980" as="targetPoint" />
            <Array as="points">
              <mxPoint x="200" y="980" />
            </Array>
          </mxGeometry>
        </mxCell>
        <mxCell id="wvzBsR5PxNeLDD9Q0MEE-40" value="" style="endArrow=none;html=1;rounded=0;strokeWidth=2;fontSize=15;fontStyle=1" edge="1" parent="1">
          <mxGeometry width="50" height="50" relative="1" as="geometry">
            <mxPoint x="166" y="1136" as="sourcePoint" />
            <mxPoint x="226" y="1136" as="targetPoint" />
            <Array as="points">
              <mxPoint x="266" y="1136" />
            </Array>
          </mxGeometry>
        </mxCell>
        <mxCell id="x4lsSWDTlxaTOrD71Kir-39" value="" style="endArrow=none;dashed=1;html=1;dashPattern=1 3;strokeWidth=2;rounded=0;fontSize=15;fontStyle=1" edge="1" parent="1">
          <mxGeometry width="50" height="50" relative="1" as="geometry">
            <mxPoint x="641" y="1297" as="sourcePoint" />
            <mxPoint x="781" y="1297" as="targetPoint" />
          </mxGeometry>
        </mxCell>
        <mxCell id="x4lsSWDTlxaTOrD71Kir-46" value="" style="endArrow=none;html=1;rounded=0;strokeWidth=2;fontSize=15;fontStyle=1" edge="1" parent="1">
          <mxGeometry width="50" height="50" relative="1" as="geometry">
            <mxPoint x="98" y="787" as="sourcePoint" />
            <mxPoint x="148" y="787" as="targetPoint" />
            <Array as="points">
              <mxPoint x="178" y="787" />
            </Array>
          </mxGeometry>
        </mxCell>
        <mxCell id="UWmWM5rkKcDVRq-q_vms-50" value="&lt;span id=&quot;docs-internal-guid-fa5433e7-7fff-da31-fba5-7217dd7b85c2&quot; style=&quot;font-size: 15px;&quot;&gt;&lt;div dir=&quot;ltr&quot; style=&quot;margin-left: 0pt; font-size: 15px;&quot; align=&quot;left&quot;&gt;&lt;table style=&quot;border: none; border-collapse: collapse; font-size: 15px;&quot;&gt;&lt;colgroup style=&quot;font-size: 15px;&quot;&gt;&lt;col style=&quot;font-size: 15px;&quot; width=&quot;285&quot;&gt;&lt;col style=&quot;font-size: 15px;&quot; width=&quot;183&quot;&gt;&lt;col style=&quot;font-size: 15px;&quot; width=&quot;133&quot;&gt;&lt;/colgroup&gt;&lt;tbody style=&quot;font-size: 15px;&quot;&gt;&lt;tr style=&quot;height: 28.5pt; font-size: 15px;&quot;&gt;&lt;td style=&quot;border-width: 1pt; border-style: solid; border-color: rgb(0, 0, 0); vertical-align: middle; padding: 0pt 5.4pt; overflow: hidden; overflow-wrap: break-word; font-size: 15px;&quot;&gt;&lt;p dir=&quot;ltr&quot; style=&quot;line-height: 1.2; text-align: center; margin-top: 0pt; margin-bottom: 0pt; font-size: 15px;&quot;&gt;&lt;font face=&quot;Arial, sans-serif&quot;&gt;DIAGNOSIS_REPORT&lt;/font&gt;&lt;/p&gt;&lt;/td&gt;&lt;/tr&gt;&lt;/tbody&gt;&lt;/table&gt;&lt;/div&gt;&lt;/span&gt;" style="text;whiteSpace=wrap;html=1;strokeWidth=2;fontSize=15;fontStyle=1" vertex="1" parent="1">
          <mxGeometry x="93" y="1510" width="560" height="60" as="geometry" />
        </mxCell>
        <mxCell id="wvzBsR5PxNeLDD9Q0MEE-48" value="&lt;span id=&quot;docs-internal-guid-41cc363e-7fff-2066-ed47-d3e46d8b0dd9&quot; style=&quot;font-size: 15px;&quot;&gt;&lt;div dir=&quot;ltr&quot; style=&quot;margin-left: 0pt; font-size: 15px;&quot; align=&quot;left&quot;&gt;&lt;table style=&quot;border: none; border-collapse: collapse; font-size: 15px;&quot;&gt;&lt;colgroup style=&quot;font-size: 15px;&quot;&gt;&lt;col style=&quot;font-size: 15px;&quot; width=&quot;285&quot;&gt;&lt;col style=&quot;font-size: 15px;&quot; width=&quot;183&quot;&gt;&lt;col style=&quot;font-size: 15px;&quot; width=&quot;133&quot;&gt;&lt;/colgroup&gt;&lt;tbody style=&quot;font-size: 15px;&quot;&gt;&lt;tr style=&quot;height: 28.5pt; font-size: 15px;&quot;&gt;&lt;td style=&quot;border-width: 1pt; border-style: solid; border-color: rgb(0, 0, 0); vertical-align: middle; padding: 0pt 5.4pt; overflow: hidden; overflow-wrap: break-word; font-size: 15px;&quot;&gt;&lt;p dir=&quot;ltr&quot; style=&quot;line-height: 1.2; margin-top: 0pt; margin-bottom: 0pt; font-size: 15px;&quot;&gt;&lt;span style=&quot;font-size: 15px; font-family: Arial, sans-serif; color: rgb(0, 0, 0); background-color: transparent; font-style: normal; font-variant: normal; text-decoration: none; vertical-align: baseline; white-space: pre-wrap;&quot;&gt;Patientid&lt;/span&gt;&lt;/p&gt;&lt;/td&gt;&lt;/tr&gt;&lt;/tbody&gt;&lt;/table&gt;&lt;/div&gt;&lt;/span&gt;" style="text;whiteSpace=wrap;html=1;strokeWidth=2;fontSize=15;fontStyle=1" vertex="1" parent="1">
          <mxGeometry x="800" y="940" width="560" height="60" as="geometry" />
        </mxCell>
        <mxCell id="wvzBsR5PxNeLDD9Q0MEE-49" value="" style="endArrow=none;dashed=1;html=1;rounded=0;strokeWidth=2;fontSize=15;fontStyle=1" edge="1" parent="1">
          <mxGeometry width="50" height="50" relative="1" as="geometry">
            <mxPoint x="812" y="977.17" as="sourcePoint" />
            <mxPoint x="882" y="977.17" as="targetPoint" />
          </mxGeometry>
        </mxCell>
        <mxCell id="lmMFaKnsFqDVXczEjcxf-1" value="&lt;font style=&quot;font-size: 52px;&quot;&gt;Relational schema&lt;/font&gt;" style="text;html=1;align=center;verticalAlign=middle;resizable=0;points=[];autosize=1;strokeColor=none;fillColor=none;fontStyle=1;labelBackgroundColor=default;fontSize=52;" vertex="1" parent="1">
          <mxGeometry x="660" y="40" width="450" height="80" as="geometry" />
        </mxCell>
        <mxCell id="HyUp9l2Vr_Cx3j_zZF8H-4" value="&lt;span id=&quot;docs-internal-guid-96762938-7fff-d55d-0912-fb01452e396e&quot; style=&quot;font-size: 15px;&quot;&gt;&lt;div dir=&quot;ltr&quot; style=&quot;margin-left: 0pt; font-size: 15px;&quot; align=&quot;left&quot;&gt;&lt;table style=&quot;border: none; border-collapse: collapse; font-size: 15px;&quot;&gt;&lt;colgroup style=&quot;font-size: 15px;&quot;&gt;&lt;col style=&quot;font-size: 15px;&quot; width=&quot;285&quot;&gt;&lt;col style=&quot;font-size: 15px;&quot; width=&quot;183&quot;&gt;&lt;col style=&quot;font-size: 15px;&quot; width=&quot;133&quot;&gt;&lt;/colgroup&gt;&lt;tbody style=&quot;font-size: 15px;&quot;&gt;&lt;tr style=&quot;height: 28.5pt; font-size: 15px;&quot;&gt;&lt;td style=&quot;border-width: 1pt; border-style: solid; border-color: rgb(0, 0, 0); vertical-align: middle; padding: 0pt 5.4pt; overflow: hidden; overflow-wrap: break-word; font-size: 15px;&quot;&gt;&lt;p dir=&quot;ltr&quot; style=&quot;line-height: 1.2; margin-top: 0pt; margin-bottom: 0pt; font-size: 15px;&quot;&gt;&lt;span style=&quot;font-size: 15px; font-family: Arial, sans-serif; color: rgb(0, 0, 0); background-color: transparent; font-style: normal; font-variant: normal; text-decoration: none; vertical-align: baseline; white-space: pre-wrap;&quot;&gt;Patient_Address&lt;/span&gt;&lt;/p&gt;&lt;/td&gt;&lt;/tr&gt;&lt;/tbody&gt;&lt;/table&gt;&lt;/div&gt;&lt;/span&gt;" style="text;whiteSpace=wrap;html=1;strokeWidth=2;fontSize=15;fontStyle=1" vertex="1" parent="1">
          <mxGeometry x="631" y="750" width="550" height="60" as="geometry" />
        </mxCell>
        <mxCell id="HyUp9l2Vr_Cx3j_zZF8H-6" value="&lt;span id=&quot;docs-internal-guid-d3f52924-7fff-9f71-109f-d62ac2c7db36&quot; style=&quot;font-size: 15px;&quot;&gt;&lt;div dir=&quot;ltr&quot; style=&quot;margin-left: 0pt; font-size: 15px;&quot; align=&quot;left&quot;&gt;&lt;table style=&quot;border: none; border-collapse: collapse; font-size: 15px;&quot;&gt;&lt;colgroup style=&quot;font-size: 15px;&quot;&gt;&lt;col style=&quot;font-size: 15px;&quot; width=&quot;285&quot;&gt;&lt;col style=&quot;font-size: 15px;&quot; width=&quot;183&quot;&gt;&lt;col style=&quot;font-size: 15px;&quot; width=&quot;133&quot;&gt;&lt;/colgroup&gt;&lt;tbody style=&quot;font-size: 15px;&quot;&gt;&lt;tr style=&quot;height: 28.5pt; font-size: 15px;&quot;&gt;&lt;td style=&quot;border-width: 1pt; border-style: solid; border-color: rgb(0, 0, 0); vertical-align: middle; padding: 0pt 5.4pt; overflow: hidden; overflow-wrap: break-word; font-size: 15px;&quot;&gt;&lt;p dir=&quot;ltr&quot; style=&quot;line-height: 1.2; margin-top: 0pt; margin-bottom: 0pt; font-size: 15px;&quot;&gt;&lt;span style=&quot;font-size: 15px; font-family: Arial, sans-serif; color: rgb(0, 0, 0); background-color: transparent; font-style: normal; font-variant: normal; text-decoration: none; vertical-align: baseline; white-space: pre-wrap;&quot;&gt;Appointment_id&lt;/span&gt;&lt;/p&gt;&lt;/td&gt;&lt;/tr&gt;&lt;/tbody&gt;&lt;/table&gt;&lt;/div&gt;&lt;/span&gt;" style="text;whiteSpace=wrap;html=1;strokeWidth=2;fontSize=15;fontStyle=1" vertex="1" parent="1">
          <mxGeometry x="89" y="940" width="561" height="60" as="geometry" />
        </mxCell>
        <mxCell id="7zAbvkIOnsS2iL12WlK9-3" value="" style="endArrow=none;html=1;rounded=0;strokeWidth=2;fontSize=15;fontStyle=1" edge="1" parent="1">
          <mxGeometry width="50" height="50" relative="1" as="geometry">
            <mxPoint x="174.5" y="1290" as="sourcePoint" />
            <mxPoint x="234.5" y="1290" as="targetPoint" />
            <Array as="points">
              <mxPoint x="274.5" y="1290" />
            </Array>
          </mxGeometry>
        </mxCell>
        <mxCell id="HyUp9l2Vr_Cx3j_zZF8H-7" value="&lt;span id=&quot;docs-internal-guid-d3f52924-7fff-9f71-109f-d62ac2c7db36&quot; style=&quot;font-size: 15px;&quot;&gt;&lt;div dir=&quot;ltr&quot; style=&quot;margin-left: 0pt; font-size: 15px;&quot; align=&quot;left&quot;&gt;&lt;table style=&quot;border: none; border-collapse: collapse; font-size: 15px;&quot;&gt;&lt;colgroup style=&quot;font-size: 15px;&quot;&gt;&lt;col style=&quot;font-size: 15px;&quot; width=&quot;285&quot;&gt;&lt;col style=&quot;font-size: 15px;&quot; width=&quot;183&quot;&gt;&lt;col style=&quot;font-size: 15px;&quot; width=&quot;133&quot;&gt;&lt;/colgroup&gt;&lt;tbody style=&quot;font-size: 15px;&quot;&gt;&lt;tr style=&quot;height: 28.5pt; font-size: 15px;&quot;&gt;&lt;td style=&quot;border-width: 1pt; border-style: solid; border-color: rgb(0, 0, 0); vertical-align: middle; padding: 0pt 5.4pt; overflow: hidden; overflow-wrap: break-word; font-size: 15px;&quot;&gt;&lt;p dir=&quot;ltr&quot; style=&quot;line-height: 1.2; margin-top: 0pt; margin-bottom: 0pt; font-size: 15px;&quot;&gt;&lt;span style=&quot;font-size: 15px; font-family: Arial, sans-serif; color: rgb(0, 0, 0); background-color: transparent; font-style: normal; font-variant: normal; text-decoration: none; vertical-align: baseline; white-space: pre-wrap;&quot;&gt;Appointment_date&lt;/span&gt;&lt;/p&gt;&lt;/td&gt;&lt;/tr&gt;&lt;/tbody&gt;&lt;/table&gt;&lt;/div&gt;&lt;/span&gt;" style="text;whiteSpace=wrap;html=1;strokeWidth=2;fontSize=15;fontStyle=1" vertex="1" parent="1">
          <mxGeometry x="360" y="940" width="240" height="60" as="geometry" />
        </mxCell>
        <mxCell id="HyUp9l2Vr_Cx3j_zZF8H-13" value="&lt;span id=&quot;docs-internal-guid-bd92c07b-7fff-03b0-68b9-28c52c32ad15&quot; style=&quot;font-size: 15px;&quot;&gt;&lt;div dir=&quot;ltr&quot; style=&quot;margin-left: 0pt; font-size: 15px;&quot; align=&quot;left&quot;&gt;&lt;table style=&quot;border: none; border-collapse: collapse; font-size: 15px;&quot;&gt;&lt;colgroup style=&quot;font-size: 15px;&quot;&gt;&lt;col style=&quot;font-size: 15px;&quot; width=&quot;285&quot;&gt;&lt;col style=&quot;font-size: 15px;&quot; width=&quot;183&quot;&gt;&lt;col style=&quot;font-size: 15px;&quot; width=&quot;133&quot;&gt;&lt;/colgroup&gt;&lt;tbody style=&quot;font-size: 15px;&quot;&gt;&lt;tr style=&quot;height: 28.5pt; font-size: 15px;&quot;&gt;&lt;td style=&quot;border-width: 1pt; border-style: solid; border-color: rgb(0, 0, 0); vertical-align: middle; padding: 0pt 5.4pt; overflow: hidden; overflow-wrap: break-word; font-size: 15px;&quot;&gt;&lt;p dir=&quot;ltr&quot; style=&quot;line-height: 1.2; text-align: center; margin-top: 0pt; margin-bottom: 0pt; font-size: 15px;&quot;&gt;&lt;font face=&quot;Arial, sans-serif&quot;&gt;&lt;span style=&quot;white-space-collapse: preserve;&quot;&gt;Doc_ID&lt;/span&gt;&lt;/font&gt;&lt;/p&gt;&lt;/td&gt;&lt;/tr&gt;&lt;/tbody&gt;&lt;/table&gt;&lt;/div&gt;&lt;/span&gt;" style="text;whiteSpace=wrap;html=1;strokeWidth=2;fontSize=15;fontStyle=1" vertex="1" parent="1">
          <mxGeometry x="532" y="940" width="560" height="60" as="geometry" />
        </mxCell>
        <mxCell id="HyUp9l2Vr_Cx3j_zZF8H-14" value="" style="endArrow=none;dashed=1;html=1;rounded=0;strokeWidth=2;fontSize=15;fontStyle=1" edge="1" parent="1">
          <mxGeometry width="50" height="50" relative="1" as="geometry">
            <mxPoint x="639" y="978" as="sourcePoint" />
            <mxPoint x="709" y="978" as="targetPoint" />
          </mxGeometry>
        </mxCell>
        <mxCell id="HyUp9l2Vr_Cx3j_zZF8H-17" value="&lt;font style=&quot;font-size: 15px;&quot;&gt;&lt;b&gt;PRESCRIPTION&lt;/b&gt;&lt;/font&gt;" style="whiteSpace=wrap;html=1;align=center;" vertex="1" parent="1">
          <mxGeometry x="89" y="1226" width="271" height="40" as="geometry" />
        </mxCell>
        <mxCell id="2WAh_zoHA8WRV0dwh5M_-3" value="" style="endArrow=none;html=1;rounded=0;" edge="1" parent="1">
          <mxGeometry width="50" height="50" relative="1" as="geometry">
            <mxPoint x="220" y="1480" as="sourcePoint" />
            <mxPoint x="220" y="1300" as="targetPoint" />
          </mxGeometry>
        </mxCell>
        <mxCell id="HyUp9l2Vr_Cx3j_zZF8H-19" value="" style="endArrow=none;html=1;rounded=0;strokeWidth=2;fontSize=15;fontStyle=1" edge="1" parent="1">
          <mxGeometry width="50" height="50" relative="1" as="geometry">
            <mxPoint x="170" y="1297" as="sourcePoint" />
            <mxPoint x="230" y="1297" as="targetPoint" />
            <Array as="points">
              <mxPoint x="270" y="1297" />
            </Array>
          </mxGeometry>
        </mxCell>
        <mxCell id="7zAbvkIOnsS2iL12WlK9-12" value="&lt;span id=&quot;docs-internal-guid-bd92c07b-7fff-03b0-68b9-28c52c32ad15&quot; style=&quot;font-size: 15px;&quot;&gt;&lt;div dir=&quot;ltr&quot; style=&quot;margin-left: 0pt; font-size: 15px;&quot; align=&quot;left&quot;&gt;&lt;table style=&quot;border: none; border-collapse: collapse; font-size: 15px;&quot;&gt;&lt;colgroup style=&quot;font-size: 15px;&quot;&gt;&lt;col style=&quot;font-size: 15px;&quot; width=&quot;285&quot;&gt;&lt;col style=&quot;font-size: 15px;&quot; width=&quot;183&quot;&gt;&lt;col style=&quot;font-size: 15px;&quot; width=&quot;133&quot;&gt;&lt;/colgroup&gt;&lt;tbody style=&quot;font-size: 15px;&quot;&gt;&lt;tr style=&quot;height: 28.5pt; font-size: 15px;&quot;&gt;&lt;td style=&quot;border-width: 1pt; border-style: solid; border-color: rgb(0, 0, 0); vertical-align: middle; padding: 0pt 5.4pt; overflow: hidden; overflow-wrap: break-word; font-size: 15px;&quot;&gt;&lt;p dir=&quot;ltr&quot; style=&quot;line-height: 1.2; text-align: center; margin-top: 0pt; margin-bottom: 0pt; font-size: 15px;&quot;&gt;&lt;font face=&quot;Arial, sans-serif&quot;&gt;&lt;span style=&quot;white-space-collapse: preserve;&quot;&gt;Npatient_ID&lt;/span&gt;&lt;/font&gt;&lt;/p&gt;&lt;/td&gt;&lt;/tr&gt;&lt;/tbody&gt;&lt;/table&gt;&lt;/div&gt;&lt;/span&gt;" style="text;whiteSpace=wrap;html=1;strokeWidth=2;fontSize=15;fontStyle=1" vertex="1" parent="1">
          <mxGeometry x="88" y="610" width="560" height="60" as="geometry" />
        </mxCell>
        <mxCell id="2WAh_zoHA8WRV0dwh5M_-1" value="&lt;span id=&quot;docs-internal-guid-8af0c561-7fff-5de8-570a-4e60a3c300a6&quot; style=&quot;font-size: 15px;&quot;&gt;&lt;div dir=&quot;ltr&quot; style=&quot;margin-left: 0pt; font-size: 15px;&quot; align=&quot;left&quot;&gt;&lt;table style=&quot;border: none; border-collapse: collapse; font-size: 15px;&quot;&gt;&lt;colgroup style=&quot;font-size: 15px;&quot;&gt;&lt;col style=&quot;font-size: 15px;&quot; width=&quot;285&quot;&gt;&lt;col style=&quot;font-size: 15px;&quot; width=&quot;183&quot;&gt;&lt;col style=&quot;font-size: 15px;&quot; width=&quot;133&quot;&gt;&lt;/colgroup&gt;&lt;tbody style=&quot;font-size: 15px;&quot;&gt;&lt;tr style=&quot;height: 28.5pt; font-size: 15px;&quot;&gt;&lt;td style=&quot;border-width: 1pt; border-style: solid; border-color: rgb(0, 0, 0); vertical-align: middle; padding: 0pt 5.4pt; overflow: hidden; overflow-wrap: break-word; font-size: 15px;&quot;&gt;&lt;p style=&quot;line-height: 1.2; text-align: center; margin-top: 0pt; margin-bottom: 0pt; font-size: 15px;&quot; dir=&quot;ltr&quot;&gt;&lt;font face=&quot;Arial, sans-serif&quot;&gt;pres_id&lt;/font&gt;&lt;/p&gt;&lt;/td&gt;&lt;/tr&gt;&lt;/tbody&gt;&lt;/table&gt;&lt;span style=&quot;color: rgba(0, 0, 0, 0); font-family: monospace; font-size: 15px; text-wrap: nowrap;&quot;&gt;%3CmxGraphModel%3E%3Croot%3E%3CmxCell%20id%3D%220%22%2F%3E%3CmxCell%20id%3D%221%22%20parent%3D%220%22%2F%3E%3CmxCell%20id%3D%222%22%20value%3D%22%22%20style%3D%22endArrow%3Dnone%3Bdashed%3D1%3Bhtml%3D1%3Brounded%3D0%3B%22%20edge%3D%221%22%20parent%3D%221%22%3E%3CmxGeometry%20width%3D%2250%22%20height%3D%2250%22%20relative%3D%221%22%20as%3D%22geometry%22%3E%3CmxPoint%20x%3D%22787%22%20y%3D%22462%22%20as%3D%22sourcePoint%22%2F%3E%3CmxPoint%20x%3D%22877%22%20y%3D%22462%22%20as%3D%22targetPoint%22%2F%3E%3C%2FmxGeometry%3E%3C%2FmxCell%3E%3C%2Froot%3E%3C%2FmxGraphModel%3E&lt;/span&gt;&lt;span style=&quot;color: rgba(0, 0, 0, 0); font-family: monospace; font-size: 15px; text-wrap: nowrap; background-color: initial;&quot;&gt;%3CmxGraphModel%3E%3Croot%3E%3CmxCell%20id%3D%220%22%2F%3E%3CmxCell%20id%3D%221%22%20parent%3D%220%22%2F%3E%3CmxCell%20id%3D%222%22%20value%3D%22%22%20style%3D%22endArrow%3Dnone%3Bdashed%3D1%3Bhtml%3D1%3Brounded%3D0%3B%22%20edge%3D%221%22%20parent%3D%221%22%3E%3CmxGeometry%20width%3D%2250%22%20height%3D%2250%22%20relative%3D%221%22%20as%3D%22geometry%22%3E%3CmxPoint%20x%3D%22787%22%20y%3D%22462%22%20as%3D%22sourcePoint%22%2F%3E%3CmxPoint%20x%3D%22877%22%20y%3D%22462%22%20as%3D%22targetPoint%22%2F%3E%3C%2FmxGeometry%3E%3C%2FmxCell%3E%3C%2Froot%3E%3C%2FmxGraphModel%3E&lt;/span&gt;&lt;/div&gt;&lt;/span&gt;" style="text;whiteSpace=wrap;html=1;strokeWidth=2;fontSize=15;fontStyle=1" vertex="1" parent="1">
          <mxGeometry x="920" y="1550" width="560" height="60" as="geometry" />
        </mxCell>
        <mxCell id="2WAh_zoHA8WRV0dwh5M_-5" value="" style="endArrow=none;html=1;rounded=0;" edge="1" parent="1">
          <mxGeometry width="50" height="50" relative="1" as="geometry">
            <mxPoint x="220" y="1480" as="sourcePoint" />
            <mxPoint x="1060" y="1480" as="targetPoint" />
          </mxGeometry>
        </mxCell>
        <mxCell id="7zAbvkIOnsS2iL12WlK9-17" value="" style="endArrow=none;html=1;rounded=0;strokeWidth=2;fontSize=15;fontStyle=1" edge="1" parent="1">
          <mxGeometry width="50" height="50" relative="1" as="geometry">
            <mxPoint x="190" y="490" as="sourcePoint" />
            <mxPoint x="240" y="490" as="targetPoint" />
            <Array as="points">
              <mxPoint x="270" y="490" />
            </Array>
          </mxGeometry>
        </mxCell>
        <mxCell id="7zAbvkIOnsS2iL12WlK9-7" value="&lt;span id=&quot;docs-internal-guid-bd92c07b-7fff-03b0-68b9-28c52c32ad15&quot; style=&quot;font-size: 15px;&quot;&gt;&lt;div dir=&quot;ltr&quot; style=&quot;margin-left: 0pt; font-size: 15px;&quot; align=&quot;left&quot;&gt;&lt;table style=&quot;border: none; border-collapse: collapse; font-size: 15px;&quot;&gt;&lt;colgroup style=&quot;font-size: 15px;&quot;&gt;&lt;col style=&quot;font-size: 15px;&quot; width=&quot;285&quot;&gt;&lt;col style=&quot;font-size: 15px;&quot; width=&quot;183&quot;&gt;&lt;col style=&quot;font-size: 15px;&quot; width=&quot;133&quot;&gt;&lt;/colgroup&gt;&lt;tbody style=&quot;font-size: 15px;&quot;&gt;&lt;tr style=&quot;height: 28.5pt; font-size: 15px;&quot;&gt;&lt;td style=&quot;border-width: 1pt; border-style: solid; border-color: rgb(0, 0, 0); vertical-align: middle; padding: 0pt 5.4pt; overflow: hidden; overflow-wrap: break-word; font-size: 15px;&quot;&gt;&lt;p dir=&quot;ltr&quot; style=&quot;line-height: 1.2; text-align: center; margin-top: 0pt; margin-bottom: 0pt; font-size: 15px;&quot;&gt;&lt;font face=&quot;Arial, sans-serif&quot;&gt;&lt;span style=&quot;white-space-collapse: preserve;&quot;&gt;RESIDENT&lt;/span&gt;&lt;/font&gt;&lt;/p&gt;&lt;/td&gt;&lt;/tr&gt;&lt;/tbody&gt;&lt;/table&gt;&lt;/div&gt;&lt;/span&gt;" style="text;whiteSpace=wrap;html=1;strokeWidth=2;fontSize=15;fontStyle=1" vertex="1" parent="1">
          <mxGeometry x="93" y="410" width="560" height="60" as="geometry" />
        </mxCell>
        <mxCell id="7zAbvkIOnsS2iL12WlK9-11" value="&lt;span id=&quot;docs-internal-guid-bd92c07b-7fff-03b0-68b9-28c52c32ad15&quot; style=&quot;font-size: 15px;&quot;&gt;&lt;div dir=&quot;ltr&quot; style=&quot;margin-left: 0pt; font-size: 15px;&quot; align=&quot;left&quot;&gt;&lt;table style=&quot;border: none; border-collapse: collapse; font-size: 15px;&quot;&gt;&lt;colgroup style=&quot;font-size: 15px;&quot;&gt;&lt;col style=&quot;font-size: 15px;&quot; width=&quot;285&quot;&gt;&lt;col style=&quot;font-size: 15px;&quot; width=&quot;183&quot;&gt;&lt;col style=&quot;font-size: 15px;&quot; width=&quot;133&quot;&gt;&lt;/colgroup&gt;&lt;tbody style=&quot;font-size: 15px;&quot;&gt;&lt;tr style=&quot;height: 28.5pt; font-size: 15px;&quot;&gt;&lt;td style=&quot;border-width: 1pt; border-style: solid; border-color: rgb(0, 0, 0); vertical-align: middle; padding: 0pt 5.4pt; overflow: hidden; overflow-wrap: break-word; font-size: 15px;&quot;&gt;&lt;p dir=&quot;ltr&quot; style=&quot;line-height: 1.2; text-align: center; margin-top: 0pt; margin-bottom: 0pt; font-size: 15px;&quot;&gt;&lt;font face=&quot;Arial, sans-serif&quot;&gt;&lt;span style=&quot;white-space-collapse: preserve;&quot;&gt;NONRESIDENT&lt;/span&gt;&lt;/font&gt;&lt;/p&gt;&lt;/td&gt;&lt;/tr&gt;&lt;/tbody&gt;&lt;/table&gt;&lt;/div&gt;&lt;/span&gt;" style="text;whiteSpace=wrap;html=1;strokeWidth=2;fontSize=15;fontStyle=1" vertex="1" parent="1">
          <mxGeometry x="88" y="570" width="560" height="60" as="geometry" />
        </mxCell>
        <mxCell id="7zAbvkIOnsS2iL12WlK9-8" value="&lt;span id=&quot;docs-internal-guid-bd92c07b-7fff-03b0-68b9-28c52c32ad15&quot; style=&quot;font-size: 15px;&quot;&gt;&lt;div dir=&quot;ltr&quot; style=&quot;margin-left: 0pt; font-size: 15px;&quot; align=&quot;left&quot;&gt;&lt;table style=&quot;border: none; border-collapse: collapse; font-size: 15px;&quot;&gt;&lt;colgroup style=&quot;font-size: 15px;&quot;&gt;&lt;col style=&quot;font-size: 15px;&quot; width=&quot;285&quot;&gt;&lt;col style=&quot;font-size: 15px;&quot; width=&quot;183&quot;&gt;&lt;col style=&quot;font-size: 15px;&quot; width=&quot;133&quot;&gt;&lt;/colgroup&gt;&lt;tbody style=&quot;font-size: 15px;&quot;&gt;&lt;tr style=&quot;height: 28.5pt; font-size: 15px;&quot;&gt;&lt;td style=&quot;border-width: 1pt; border-style: solid; border-color: rgb(0, 0, 0); vertical-align: middle; padding: 0pt 5.4pt; overflow: hidden; overflow-wrap: break-word; font-size: 15px;&quot;&gt;&lt;p dir=&quot;ltr&quot; style=&quot;line-height: 1.2; text-align: center; margin-top: 0pt; margin-bottom: 0pt; font-size: 15px;&quot;&gt;&lt;font face=&quot;Arial, sans-serif&quot;&gt;&lt;span style=&quot;white-space-collapse: preserve;&quot;&gt;RPatient_id&lt;/span&gt;&lt;/font&gt;&lt;/p&gt;&lt;/td&gt;&lt;/tr&gt;&lt;/tbody&gt;&lt;/table&gt;&lt;/div&gt;&lt;/span&gt;" style="text;whiteSpace=wrap;html=1;strokeWidth=2;fontSize=15;fontStyle=1" vertex="1" parent="1">
          <mxGeometry x="93" y="450" width="560" height="60" as="geometry" />
        </mxCell>
        <mxCell id="7zAbvkIOnsS2iL12WlK9-16" value="" style="endArrow=none;html=1;rounded=0;strokeWidth=2;fontSize=15;fontStyle=1" edge="1" parent="1">
          <mxGeometry width="50" height="50" relative="1" as="geometry">
            <mxPoint x="194.5" y="644.17" as="sourcePoint" />
            <mxPoint x="244.5" y="644.17" as="targetPoint" />
            <Array as="points">
              <mxPoint x="274.5" y="644.17" />
            </Array>
          </mxGeometry>
        </mxCell>
        <mxCell id="HyUp9l2Vr_Cx3j_zZF8H-24" value="&lt;span id=&quot;docs-internal-guid-d3f52924-7fff-9f71-109f-d62ac2c7db36&quot; style=&quot;font-size: 15px;&quot;&gt;&lt;div dir=&quot;ltr&quot; style=&quot;margin-left: 0pt; font-size: 15px;&quot; align=&quot;left&quot;&gt;&lt;table style=&quot;border: none; border-collapse: collapse; font-size: 15px;&quot;&gt;&lt;colgroup style=&quot;font-size: 15px;&quot;&gt;&lt;col style=&quot;font-size: 15px;&quot; width=&quot;285&quot;&gt;&lt;col style=&quot;font-size: 15px;&quot; width=&quot;183&quot;&gt;&lt;col style=&quot;font-size: 15px;&quot; width=&quot;133&quot;&gt;&lt;/colgroup&gt;&lt;tbody style=&quot;font-size: 15px;&quot;&gt;&lt;tr style=&quot;height: 28.5pt; font-size: 15px;&quot;&gt;&lt;td style=&quot;border-width: 1pt; border-style: solid; border-color: rgb(0, 0, 0); vertical-align: middle; padding: 0pt 5.4pt; overflow: hidden; overflow-wrap: break-word; font-size: 15px;&quot;&gt;&lt;p dir=&quot;ltr&quot; style=&quot;line-height: 1.2; margin-top: 0pt; margin-bottom: 0pt; font-size: 15px;&quot;&gt;&lt;span style=&quot;font-size: 15px; font-family: Arial, sans-serif; color: rgb(0, 0, 0); background-color: transparent; font-style: normal; font-variant: normal; text-decoration: none; vertical-align: baseline; white-space: pre-wrap;&quot;&gt;Appointment_id&lt;/span&gt;&lt;/p&gt;&lt;/td&gt;&lt;/tr&gt;&lt;/tbody&gt;&lt;/table&gt;&lt;/div&gt;&lt;/span&gt;" style="text;whiteSpace=wrap;html=1;strokeWidth=2;fontSize=15;fontStyle=1" vertex="1" parent="1">
          <mxGeometry x="630" y="1260" width="260" height="60" as="geometry" />
        </mxCell>
        <mxCell id="HyUp9l2Vr_Cx3j_zZF8H-18" value="&lt;font style=&quot;font-size: 15px;&quot;&gt;&lt;b&gt;Pres_id&lt;/b&gt;&lt;/font&gt;" style="whiteSpace=wrap;html=1;align=center;" vertex="1" parent="1">
          <mxGeometry x="89" y="1266" width="271" height="40" as="geometry" />
        </mxCell>
        <mxCell id="2WAh_zoHA8WRV0dwh5M_-6" value="" style="endArrow=classic;html=1;rounded=0;entryX=0.25;entryY=0;entryDx=0;entryDy=0;" edge="1" parent="1" target="2WAh_zoHA8WRV0dwh5M_-1">
          <mxGeometry width="50" height="50" relative="1" as="geometry">
            <mxPoint x="1060" y="1480" as="sourcePoint" />
            <mxPoint x="1140" y="1440" as="targetPoint" />
          </mxGeometry>
        </mxCell>
        <mxCell id="7zAbvkIOnsS2iL12WlK9-19" value="&lt;span id=&quot;docs-internal-guid-bd92c07b-7fff-03b0-68b9-28c52c32ad15&quot; style=&quot;font-size: 15px;&quot;&gt;&lt;div dir=&quot;ltr&quot; style=&quot;margin-left: 0pt; font-size: 15px;&quot; align=&quot;left&quot;&gt;&lt;table style=&quot;border: none; border-collapse: collapse; font-size: 15px;&quot;&gt;&lt;colgroup style=&quot;font-size: 15px;&quot;&gt;&lt;col style=&quot;font-size: 15px;&quot; width=&quot;285&quot;&gt;&lt;col style=&quot;font-size: 15px;&quot; width=&quot;183&quot;&gt;&lt;col style=&quot;font-size: 15px;&quot; width=&quot;133&quot;&gt;&lt;/colgroup&gt;&lt;tbody style=&quot;font-size: 15px;&quot;&gt;&lt;tr style=&quot;height: 28.5pt; font-size: 15px;&quot;&gt;&lt;td style=&quot;border-width: 1pt; border-style: solid; border-color: rgb(0, 0, 0); vertical-align: middle; padding: 0pt 5.4pt; overflow: hidden; overflow-wrap: break-word; font-size: 15px;&quot;&gt;&lt;p dir=&quot;ltr&quot; style=&quot;line-height: 1.2; text-align: center; margin-top: 0pt; margin-bottom: 0pt; font-size: 15px;&quot;&gt;&lt;font face=&quot;Arial, sans-serif&quot;&gt;&lt;span style=&quot;white-space-collapse: preserve;&quot;&gt;BED&lt;/span&gt;&lt;/font&gt;&lt;/p&gt;&lt;/td&gt;&lt;/tr&gt;&lt;/tbody&gt;&lt;/table&gt;&lt;/div&gt;&lt;/span&gt;" style="text;whiteSpace=wrap;html=1;strokeWidth=2;fontSize=15;fontStyle=1" vertex="1" parent="1">
          <mxGeometry x="90" y="2040" width="535" height="60" as="geometry" />
        </mxCell>
        <mxCell id="HyUp9l2Vr_Cx3j_zZF8H-25" value="&lt;span style=&quot;font-size: 15px;&quot;&gt;&lt;b&gt;Medicine&lt;/b&gt;&lt;/span&gt;" style="whiteSpace=wrap;html=1;align=center;spacingBottom=0;spacingLeft=0;" vertex="1" parent="1">
          <mxGeometry x="1721" y="1302" width="271" height="38" as="geometry" />
        </mxCell>
        <mxCell id="7zAbvkIOnsS2iL12WlK9-18" value="&lt;span id=&quot;docs-internal-guid-bd92c07b-7fff-03b0-68b9-28c52c32ad15&quot; style=&quot;font-size: 15px;&quot;&gt;&lt;div dir=&quot;ltr&quot; style=&quot;margin-left: 0pt; font-size: 15px;&quot; align=&quot;left&quot;&gt;&lt;table style=&quot;border: none; border-collapse: collapse; font-size: 15px;&quot;&gt;&lt;colgroup style=&quot;font-size: 15px;&quot;&gt;&lt;col style=&quot;font-size: 15px;&quot; width=&quot;285&quot;&gt;&lt;col style=&quot;font-size: 15px;&quot; width=&quot;183&quot;&gt;&lt;col style=&quot;font-size: 15px;&quot; width=&quot;133&quot;&gt;&lt;/colgroup&gt;&lt;tbody style=&quot;font-size: 15px;&quot;&gt;&lt;tr style=&quot;height: 28.5pt; font-size: 15px;&quot;&gt;&lt;td style=&quot;border-width: 1pt; border-style: solid; border-color: rgb(0, 0, 0); vertical-align: middle; padding: 0pt 5.4pt; overflow: hidden; overflow-wrap: break-word; font-size: 15px;&quot;&gt;&lt;p dir=&quot;ltr&quot; style=&quot;line-height: 1.2; text-align: center; margin-top: 0pt; margin-bottom: 0pt; font-size: 15px;&quot;&gt;&lt;font face=&quot;Arial, sans-serif&quot;&gt;&lt;span style=&quot;white-space-collapse: preserve;&quot;&gt;bed_id&lt;/span&gt;&lt;/font&gt;&lt;/p&gt;&lt;/td&gt;&lt;/tr&gt;&lt;/tbody&gt;&lt;/table&gt;&lt;/div&gt;&lt;/span&gt;" style="text;whiteSpace=wrap;html=1;strokeWidth=2;fontSize=15;fontStyle=1" vertex="1" parent="1">
          <mxGeometry x="90" y="2080" width="535" height="60" as="geometry" />
        </mxCell>
        <mxCell id="2WAh_zoHA8WRV0dwh5M_-7" value="" style="endArrow=none;dashed=1;html=1;dashPattern=1 3;strokeWidth=2;rounded=0;exitX=0.196;exitY=0.667;exitDx=0;exitDy=0;exitPerimeter=0;" edge="1" parent="1" source="2WAh_zoHA8WRV0dwh5M_-1">
          <mxGeometry width="50" height="50" relative="1" as="geometry">
            <mxPoint x="1050" y="1630" as="sourcePoint" />
            <mxPoint x="1100" y="1590" as="targetPoint" />
          </mxGeometry>
        </mxCell>
        <mxCell id="7zAbvkIOnsS2iL12WlK9-20" value="" style="endArrow=none;html=1;rounded=0;strokeWidth=2;fontSize=15;fontStyle=1" edge="1" parent="1">
          <mxGeometry width="50" height="50" relative="1" as="geometry">
            <mxPoint x="184.5" y="2120" as="sourcePoint" />
            <mxPoint x="234.5" y="2120" as="targetPoint" />
            <Array as="points">
              <mxPoint x="264.5" y="2120" />
            </Array>
          </mxGeometry>
        </mxCell>
        <mxCell id="HyUp9l2Vr_Cx3j_zZF8H-26" value="&lt;span style=&quot;font-size: 15px;&quot;&gt;&lt;b&gt;PRESCRIPTIONADVICE&lt;/b&gt;&lt;/span&gt;" style="whiteSpace=wrap;html=1;align=center;spacingBottom=0;spacingLeft=0;" vertex="1" parent="1">
          <mxGeometry x="1459" y="1460" width="271" height="38" as="geometry" />
        </mxCell>
        <mxCell id="2WAh_zoHA8WRV0dwh5M_-9" value="" style="endArrow=none;html=1;rounded=0;" edge="1" parent="1">
          <mxGeometry width="50" height="50" relative="1" as="geometry">
            <mxPoint x="20" y="1060" as="sourcePoint" />
            <mxPoint x="20" y="360" as="targetPoint" />
          </mxGeometry>
        </mxCell>
        <mxCell id="2WAh_zoHA8WRV0dwh5M_-10" value="" style="endArrow=none;html=1;rounded=0;entryX=0;entryY=0.5;entryDx=0;entryDy=0;" edge="1" parent="1" target="UWmWM5rkKcDVRq-q_vms-13">
          <mxGeometry width="50" height="50" relative="1" as="geometry">
            <mxPoint x="20" y="360" as="sourcePoint" />
            <mxPoint x="90" y="340" as="targetPoint" />
          </mxGeometry>
        </mxCell>
        <mxCell id="2WAh_zoHA8WRV0dwh5M_-11" value="" style="endArrow=classic;html=1;rounded=0;" edge="1" parent="1">
          <mxGeometry width="50" height="50" relative="1" as="geometry">
            <mxPoint x="670" y="1060" as="sourcePoint" />
            <mxPoint x="670" y="990" as="targetPoint" />
          </mxGeometry>
        </mxCell>
        <mxCell id="2WAh_zoHA8WRV0dwh5M_-12" value="" style="endArrow=none;html=1;rounded=0;" edge="1" parent="1">
          <mxGeometry width="50" height="50" relative="1" as="geometry">
            <mxPoint x="20" y="1060" as="sourcePoint" />
            <mxPoint x="670" y="1060" as="targetPoint" />
          </mxGeometry>
        </mxCell>
        <mxCell id="2WAh_zoHA8WRV0dwh5M_-14" value="" style="endArrow=classic;html=1;rounded=0;" edge="1" parent="1">
          <mxGeometry width="50" height="50" relative="1" as="geometry">
            <mxPoint x="890" y="1020" as="sourcePoint" />
            <mxPoint x="890" y="990" as="targetPoint" />
          </mxGeometry>
        </mxCell>
        <mxCell id="2WAh_zoHA8WRV0dwh5M_-15" value="" style="endArrow=none;html=1;rounded=0;" edge="1" parent="1">
          <mxGeometry width="50" height="50" relative="1" as="geometry">
            <mxPoint x="890" y="1020" as="sourcePoint" />
            <mxPoint x="1130" y="1020" as="targetPoint" />
          </mxGeometry>
        </mxCell>
        <mxCell id="2WAh_zoHA8WRV0dwh5M_-16" value="" style="endArrow=none;html=1;rounded=0;" edge="1" parent="1">
          <mxGeometry width="50" height="50" relative="1" as="geometry">
            <mxPoint x="1130" y="1020" as="sourcePoint" />
            <mxPoint x="1130" y="880" as="targetPoint" />
          </mxGeometry>
        </mxCell>
        <mxCell id="2WAh_zoHA8WRV0dwh5M_-17" value="" style="endArrow=none;html=1;rounded=0;" edge="1" parent="1">
          <mxGeometry width="50" height="50" relative="1" as="geometry">
            <mxPoint x="120" y="890" as="sourcePoint" />
            <mxPoint x="1130" y="880" as="targetPoint" />
          </mxGeometry>
        </mxCell>
        <mxCell id="2WAh_zoHA8WRV0dwh5M_-19" value="" style="endArrow=classic;html=1;rounded=0;" edge="1" parent="1">
          <mxGeometry width="50" height="50" relative="1" as="geometry">
            <mxPoint x="120" y="890" as="sourcePoint" />
            <mxPoint x="120" y="790" as="targetPoint" />
          </mxGeometry>
        </mxCell>
        <mxCell id="HyUp9l2Vr_Cx3j_zZF8H-28" value="&lt;span style=&quot;font-size: 15px;&quot;&gt;&lt;b&gt;NURSEASSIGN&lt;/b&gt;&lt;/span&gt;" style="whiteSpace=wrap;html=1;align=center;" vertex="1" parent="1">
          <mxGeometry x="100" y="1700" width="271" height="40" as="geometry" />
        </mxCell>
        <mxCell id="HyUp9l2Vr_Cx3j_zZF8H-29" value="&lt;font style=&quot;font-size: 15px;&quot;&gt;&lt;b&gt;Assign_Nurse&lt;/b&gt;&lt;/font&gt;" style="whiteSpace=wrap;html=1;align=center;" vertex="1" parent="1">
          <mxGeometry x="632" y="1740" width="271" height="40" as="geometry" />
        </mxCell>
        <mxCell id="HyUp9l2Vr_Cx3j_zZF8H-30" value="&lt;font style=&quot;font-size: 15px;&quot;&gt;&lt;b&gt;Bed_id&lt;/b&gt;&lt;/font&gt;" style="whiteSpace=wrap;html=1;align=center;" vertex="1" parent="1">
          <mxGeometry x="100" y="1740" width="271" height="40" as="geometry" />
        </mxCell>
        <mxCell id="HyUp9l2Vr_Cx3j_zZF8H-32" value="&lt;font style=&quot;font-size: 15px;&quot;&gt;&lt;b&gt;Nurse_id&lt;/b&gt;&lt;/font&gt;" style="whiteSpace=wrap;html=1;align=center;" vertex="1" parent="1">
          <mxGeometry x="370" y="1740" width="271" height="40" as="geometry" />
        </mxCell>
        <mxCell id="2WAh_zoHA8WRV0dwh5M_-20" value="" style="endArrow=classic;html=1;rounded=0;" edge="1" parent="1">
          <mxGeometry width="50" height="50" relative="1" as="geometry">
            <mxPoint x="130" y="1040" as="sourcePoint" />
            <mxPoint x="130" y="990" as="targetPoint" />
          </mxGeometry>
        </mxCell>
        <mxCell id="2WAh_zoHA8WRV0dwh5M_-21" value="" style="endArrow=none;html=1;rounded=0;" edge="1" parent="1">
          <mxGeometry width="50" height="50" relative="1" as="geometry">
            <mxPoint x="60" y="1040" as="sourcePoint" />
            <mxPoint x="130" y="1040" as="targetPoint" />
          </mxGeometry>
        </mxCell>
        <mxCell id="2WAh_zoHA8WRV0dwh5M_-22" value="" style="endArrow=none;html=1;rounded=0;" edge="1" parent="1">
          <mxGeometry width="50" height="50" relative="1" as="geometry">
            <mxPoint x="60" y="1340" as="sourcePoint" />
            <mxPoint x="60" y="1040" as="targetPoint" />
          </mxGeometry>
        </mxCell>
        <mxCell id="2WAh_zoHA8WRV0dwh5M_-23" value="" style="endArrow=none;html=1;rounded=0;" edge="1" parent="1">
          <mxGeometry width="50" height="50" relative="1" as="geometry">
            <mxPoint x="60" y="1340" as="sourcePoint" />
            <mxPoint x="720" y="1340" as="targetPoint" />
          </mxGeometry>
        </mxCell>
        <mxCell id="2WAh_zoHA8WRV0dwh5M_-24" value="" style="endArrow=none;html=1;rounded=0;" edge="1" parent="1">
          <mxGeometry width="50" height="50" relative="1" as="geometry">
            <mxPoint x="720" y="1336" as="sourcePoint" />
            <mxPoint x="720" y="1306" as="targetPoint" />
          </mxGeometry>
        </mxCell>
        <mxCell id="2WAh_zoHA8WRV0dwh5M_-41" value="" style="endArrow=none;html=1;rounded=0;entryX=0.446;entryY=1;entryDx=0;entryDy=0;entryPerimeter=0;" edge="1" parent="1" target="HyUp9l2Vr_Cx3j_zZF8H-30">
          <mxGeometry width="50" height="50" relative="1" as="geometry">
            <mxPoint x="220" y="1900" as="sourcePoint" />
            <mxPoint x="230" y="1780" as="targetPoint" />
          </mxGeometry>
        </mxCell>
        <mxCell id="2WAh_zoHA8WRV0dwh5M_-42" value="" style="endArrow=classic;html=1;rounded=0;" edge="1" parent="1">
          <mxGeometry width="50" height="50" relative="1" as="geometry">
            <mxPoint x="210" y="1190" as="sourcePoint" />
            <mxPoint x="210" y="1150" as="targetPoint" />
          </mxGeometry>
        </mxCell>
        <mxCell id="2WAh_zoHA8WRV0dwh5M_-43" value="" style="endArrow=none;html=1;rounded=0;" edge="1" parent="1">
          <mxGeometry width="50" height="50" relative="1" as="geometry">
            <mxPoint x="210" y="1190" as="sourcePoint" />
            <mxPoint x="1420" y="1190" as="targetPoint" />
          </mxGeometry>
        </mxCell>
        <mxCell id="2WAh_zoHA8WRV0dwh5M_-44" value="" style="endArrow=none;html=1;rounded=0;" edge="1" parent="1">
          <mxGeometry width="50" height="50" relative="1" as="geometry">
            <mxPoint x="1420" y="1800" as="sourcePoint" />
            <mxPoint x="1420" y="1190" as="targetPoint" />
          </mxGeometry>
        </mxCell>
        <mxCell id="2WAh_zoHA8WRV0dwh5M_-45" value="" style="endArrow=none;html=1;rounded=0;" edge="1" parent="1">
          <mxGeometry width="50" height="50" relative="1" as="geometry">
            <mxPoint x="490" y="1810" as="sourcePoint" />
            <mxPoint x="1420" y="1800" as="targetPoint" />
          </mxGeometry>
        </mxCell>
        <mxCell id="2WAh_zoHA8WRV0dwh5M_-46" value="" style="endArrow=none;html=1;rounded=0;" edge="1" parent="1">
          <mxGeometry width="50" height="50" relative="1" as="geometry">
            <mxPoint x="490" y="1810" as="sourcePoint" />
            <mxPoint x="490" y="1780" as="targetPoint" />
          </mxGeometry>
        </mxCell>
        <mxCell id="2WAh_zoHA8WRV0dwh5M_-58" value="" style="endArrow=none;html=1;rounded=0;exitX=0.317;exitY=0.975;exitDx=0;exitDy=0;exitPerimeter=0;entryX=0.594;entryY=0.95;entryDx=0;entryDy=0;entryPerimeter=0;" edge="1" parent="1">
          <mxGeometry width="50" height="50" relative="1" as="geometry">
            <mxPoint x="197.96699999999993" y="1771" as="sourcePoint" />
            <mxPoint x="273.03399999999993" y="1770" as="targetPoint" />
            <Array as="points">
              <mxPoint x="232.06" y="1770" />
            </Array>
          </mxGeometry>
        </mxCell>
        <mxCell id="2WAh_zoHA8WRV0dwh5M_-59" value="" style="endArrow=none;html=1;rounded=0;exitX=0.317;exitY=0.975;exitDx=0;exitDy=0;exitPerimeter=0;" edge="1" parent="1">
          <mxGeometry width="50" height="50" relative="1" as="geometry">
            <mxPoint x="207.96699999999993" y="1781" as="sourcePoint" />
            <mxPoint x="280" y="1780" as="targetPoint" />
            <Array as="points">
              <mxPoint x="242.06" y="1780" />
            </Array>
          </mxGeometry>
        </mxCell>
        <mxCell id="2WAh_zoHA8WRV0dwh5M_-60" value="" style="endArrow=none;html=1;rounded=0;exitX=0.317;exitY=0.975;exitDx=0;exitDy=0;exitPerimeter=0;" edge="1" parent="1">
          <mxGeometry width="50" height="50" relative="1" as="geometry">
            <mxPoint x="469.4869999999999" y="1771" as="sourcePoint" />
            <mxPoint x="541.52" y="1770" as="targetPoint" />
            <Array as="points">
              <mxPoint x="503.5799999999999" y="1770" />
            </Array>
          </mxGeometry>
        </mxCell>
        <mxCell id="2WAh_zoHA8WRV0dwh5M_-62" value="" style="endArrow=none;html=1;rounded=0;exitX=0.38;exitY=0.75;exitDx=0;exitDy=0;exitPerimeter=0;" edge="1" parent="1">
          <mxGeometry width="50" height="50" relative="1" as="geometry">
            <mxPoint x="194.5" y="1590" as="sourcePoint" />
            <mxPoint x="254.5" y="1590" as="targetPoint" />
          </mxGeometry>
        </mxCell>
        <mxCell id="2WAh_zoHA8WRV0dwh5M_-72" value="" style="endArrow=none;html=1;rounded=0;" edge="1" parent="1">
          <mxGeometry width="50" height="50" relative="1" as="geometry">
            <mxPoint x="220" y="1900" as="sourcePoint" />
            <mxPoint x="750" y="1900" as="targetPoint" />
          </mxGeometry>
        </mxCell>
        <mxCell id="2WAh_zoHA8WRV0dwh5M_-73" value="" style="endArrow=none;html=1;rounded=0;" edge="1" parent="1">
          <mxGeometry width="50" height="50" relative="1" as="geometry">
            <mxPoint x="750" y="2210" as="sourcePoint" />
            <mxPoint x="750" y="1900" as="targetPoint" />
          </mxGeometry>
        </mxCell>
        <mxCell id="2WAh_zoHA8WRV0dwh5M_-74" value="" style="endArrow=none;html=1;rounded=0;" edge="1" parent="1">
          <mxGeometry width="50" height="50" relative="1" as="geometry">
            <mxPoint x="210" y="2210" as="sourcePoint" />
            <mxPoint x="750" y="2210" as="targetPoint" />
          </mxGeometry>
        </mxCell>
        <mxCell id="2WAh_zoHA8WRV0dwh5M_-75" value="" style="endArrow=classic;html=1;rounded=0;entryX=0.224;entryY=0.833;entryDx=0;entryDy=0;entryPerimeter=0;" edge="1" parent="1" target="7zAbvkIOnsS2iL12WlK9-18">
          <mxGeometry width="50" height="50" relative="1" as="geometry">
            <mxPoint x="210" y="2210" as="sourcePoint" />
            <mxPoint x="210" y="2140" as="targetPoint" />
          </mxGeometry>
        </mxCell>
        <mxCell id="HyUp9l2Vr_Cx3j_zZF8H-48" value="&lt;span style=&quot;font-size: 15px;&quot;&gt;&lt;b&gt;PRESCRIBEMEDICINE&lt;/b&gt;&lt;/span&gt;" style="whiteSpace=wrap;html=1;align=center;spacingBottom=0;spacingLeft=0;" vertex="1" parent="1">
          <mxGeometry x="1450" y="1260" width="271" height="38" as="geometry" />
        </mxCell>
        <mxCell id="HyUp9l2Vr_Cx3j_zZF8H-50" value="&lt;font style=&quot;font-size: 15px;&quot;&gt;&lt;b&gt;Pres_id&lt;/b&gt;&lt;/font&gt;" style="whiteSpace=wrap;html=1;align=center;" vertex="1" parent="1">
          <mxGeometry x="1450" y="1299" width="271" height="40" as="geometry" />
        </mxCell>
        <mxCell id="HyUp9l2Vr_Cx3j_zZF8H-52" value="" style="endArrow=none;html=1;rounded=0;exitX=0.317;exitY=0.975;exitDx=0;exitDy=0;exitPerimeter=0;entryX=0.594;entryY=0.95;entryDx=0;entryDy=0;entryPerimeter=0;" edge="1" parent="1">
          <mxGeometry width="50" height="50" relative="1" as="geometry">
            <mxPoint x="185.96699999999993" y="1299" as="sourcePoint" />
            <mxPoint x="261.03399999999993" y="1298" as="targetPoint" />
            <Array as="points">
              <mxPoint x="220.06" y="1298" />
            </Array>
          </mxGeometry>
        </mxCell>
        <mxCell id="HyUp9l2Vr_Cx3j_zZF8H-54" value="" style="endArrow=none;html=1;rounded=0;strokeWidth=2;fontSize=15;fontStyle=1" edge="1" parent="1">
          <mxGeometry width="50" height="50" relative="1" as="geometry">
            <mxPoint x="1535.5" y="1330" as="sourcePoint" />
            <mxPoint x="1595.5" y="1330" as="targetPoint" />
            <Array as="points">
              <mxPoint x="1635.5" y="1330" />
            </Array>
          </mxGeometry>
        </mxCell>
        <mxCell id="HyUp9l2Vr_Cx3j_zZF8H-55" value="" style="endArrow=none;html=1;rounded=0;strokeWidth=2;fontSize=15;fontStyle=1" edge="1" parent="1">
          <mxGeometry width="50" height="50" relative="1" as="geometry">
            <mxPoint x="1805.5" y="1332" as="sourcePoint" />
            <mxPoint x="1905.5" y="1332" as="targetPoint" />
            <Array as="points">
              <mxPoint x="1905.5" y="1332" />
            </Array>
          </mxGeometry>
        </mxCell>
        <mxCell id="HyUp9l2Vr_Cx3j_zZF8H-56" value="" style="html=1;verticalAlign=bottom;endArrow=block;curved=0;rounded=0;" edge="1" parent="1">
          <mxGeometry width="80" relative="1" as="geometry">
            <mxPoint x="1620" y="1350" as="sourcePoint" />
            <mxPoint x="260" y="1320" as="targetPoint" />
            <Array as="points">
              <mxPoint x="1620" y="1420" />
              <mxPoint x="260" y="1420" />
            </Array>
          </mxGeometry>
        </mxCell>
        <mxCell id="HyUp9l2Vr_Cx3j_zZF8H-57" value="&lt;font style=&quot;font-size: 15px;&quot;&gt;&lt;b&gt;Pres_id&lt;/b&gt;&lt;/font&gt;" style="whiteSpace=wrap;html=1;align=center;" vertex="1" parent="1">
          <mxGeometry x="1459" y="1500" width="271" height="40" as="geometry" />
        </mxCell>
        <mxCell id="HyUp9l2Vr_Cx3j_zZF8H-58" value="" style="endArrow=none;html=1;rounded=0;strokeWidth=2;fontSize=15;fontStyle=1" edge="1" parent="1">
          <mxGeometry width="50" height="50" relative="1" as="geometry">
            <mxPoint x="1545" y="1532" as="sourcePoint" />
            <mxPoint x="1605" y="1532" as="targetPoint" />
            <Array as="points">
              <mxPoint x="1645" y="1532" />
            </Array>
          </mxGeometry>
        </mxCell>
        <mxCell id="HyUp9l2Vr_Cx3j_zZF8H-59" value="&lt;span style=&quot;font-size: 15px;&quot;&gt;&lt;b&gt;Advice&lt;/b&gt;&lt;/span&gt;" style="whiteSpace=wrap;html=1;align=center;spacingBottom=0;spacingLeft=0;" vertex="1" parent="1">
          <mxGeometry x="1730" y="1501" width="271" height="38" as="geometry" />
        </mxCell>
        <mxCell id="HyUp9l2Vr_Cx3j_zZF8H-60" value="" style="endArrow=none;html=1;rounded=0;strokeWidth=2;fontSize=15;fontStyle=1" edge="1" parent="1">
          <mxGeometry width="50" height="50" relative="1" as="geometry">
            <mxPoint x="1815" y="1531" as="sourcePoint" />
            <mxPoint x="1915" y="1531" as="targetPoint" />
            <Array as="points">
              <mxPoint x="1915" y="1531" />
            </Array>
          </mxGeometry>
        </mxCell>
        <mxCell id="HyUp9l2Vr_Cx3j_zZF8H-61" value="" style="html=1;verticalAlign=bottom;endArrow=block;curved=0;rounded=0;" edge="1" parent="1">
          <mxGeometry width="80" relative="1" as="geometry">
            <mxPoint x="1590" y="1553" as="sourcePoint" />
            <mxPoint x="290" y="1308" as="targetPoint" />
            <Array as="points">
              <mxPoint x="1590" y="1573" />
              <mxPoint x="1590" y="1653" />
              <mxPoint x="1340" y="1653" />
              <mxPoint x="1340" y="1458" />
              <mxPoint x="290" y="1458" />
            </Array>
          </mxGeometry>
        </mxCell>
        <mxCell id="e5mrXqWCHwWjUNt913Cn-1" value="" style="endArrow=classic;html=1;rounded=0;entryX=0;entryY=0.5;entryDx=0;entryDy=0;exitX=0;exitY=0.5;exitDx=0;exitDy=0;" edge="1" parent="1" source="7zAbvkIOnsS2iL12WlK9-8" target="UWmWM5rkKcDVRq-q_vms-29">
          <mxGeometry width="50" height="50" relative="1" as="geometry">
            <mxPoint x="620" y="610" as="sourcePoint" />
            <mxPoint x="50" y="800" as="targetPoint" />
            <Array as="points">
              <mxPoint x="50" y="570" />
              <mxPoint x="50" y="780" />
            </Array>
          </mxGeometry>
        </mxCell>
        <mxCell id="e5mrXqWCHwWjUNt913Cn-2" value="" style="endArrow=classic;html=1;rounded=0;exitX=0;exitY=0.5;exitDx=0;exitDy=0;entryX=0;entryY=0.367;entryDx=0;entryDy=0;entryPerimeter=0;" edge="1" parent="1" source="7zAbvkIOnsS2iL12WlK9-12" target="UWmWM5rkKcDVRq-q_vms-29">
          <mxGeometry width="50" height="50" relative="1" as="geometry">
            <mxPoint x="90" y="690" as="sourcePoint" />
            <mxPoint x="70" y="860" as="targetPoint" />
            <Array as="points">
              <mxPoint x="70" y="770" />
            </Array>
          </mxGeometry>
        </mxCell>
        <mxCell id="e5mrXqWCHwWjUNt913Cn-3" value="" style="endArrow=classic;html=1;rounded=0;" edge="1" parent="1">
          <mxGeometry width="50" height="50" relative="1" as="geometry">
            <mxPoint x="670" y="1560" as="sourcePoint" />
            <mxPoint x="240" y="800" as="targetPoint" />
            <Array as="points">
              <mxPoint x="1150" y="1220" />
              <mxPoint x="1190" y="830" />
              <mxPoint x="310" y="840" />
            </Array>
          </mxGeometry>
        </mxCell>
      </root>
    </mxGraphModel>
  </diagram>
</mxfile>
